<?xml version="1.0" encoding="utf-8"?>
<!-- Generator: Adobe Illustrator 25.4.0, SVG Export Plug-In . SVG Version: 6.00 Build 0)  -->
<svg version="1.1" id="Layer_1" xmlns="http://www.w3.org/2000/svg" xmlns:xlink="http://www.w3.org/1999/xlink" x="0px" y="0px"
	 viewBox="0 0 800 800" style="enable-background:new 0 0 800 800;" xml:space="preserve">
<style type="text/css">
	.st0{fill:#5865F2;}
	.st1{fill:#FFFFFF;}
</style>
<circle class="st0" cx="400" cy="400" r="400"/>
<path class="st1" d="M597.6,218.5c-37-17-76-29.1-116.1-36c-0.7-0.1-1.5,0.2-1.9,0.9c-5.3,9.6-10.2,19.6-14.5,29.7
	c-43.2-6.6-87.2-6.6-130.4,0c-4.3-10.2-9.2-20.1-14.7-29.7c-0.4-0.7-1.1-1-1.9-0.9c-40.1,6.9-79.1,19-116,36
	c-0.3,0.1-0.6,0.4-0.8,0.7c-73.9,110.4-94.2,218.2-84.2,324.6c0.1,0.5,0.3,1,0.7,1.3c43,31.9,91.2,56.2,142.4,72
	c0.7,0.2,1.5,0,2-0.7c11-15,20.7-30.8,29.1-47.4c0.4-0.9,0.1-2-0.8-2.4c-0.1,0-0.1-0.1-0.2-0.1c-15.4-5.9-30.2-12.9-44.5-21.2
	c-0.9-0.5-1.2-1.6-0.6-2.5c0.1-0.2,0.3-0.4,0.5-0.5c3-2.2,6-4.6,8.8-6.9c0.5-0.4,1.2-0.5,1.8-0.2c93.3,42.6,194.4,42.6,286.6,0
	c0.6-0.3,1.3-0.2,1.9,0.2c2.9,2.3,5.8,4.7,8.9,6.9c0.8,0.6,1,1.7,0.4,2.6c-0.1,0.2-0.3,0.4-0.5,0.5c-14.2,8.3-29.1,15.4-44.5,21.2
	c-0.9,0.4-1.4,1.4-1.1,2.3c0,0.1,0.1,0.1,0.1,0.2c8.5,16.5,18.3,32.3,29.1,47.4c0.5,0.6,1.3,0.9,2,0.7c51.3-15.7,99.5-40.1,142.6-72
	c0.4-0.3,0.7-0.8,0.7-1.3c11.9-123-19.9-229.9-84.3-324.6C598.2,218.9,597.9,218.7,597.6,218.5L597.6,218.5z M305.4,479
	c-28.1,0-51.2-25.8-51.2-57.5s22.7-57.5,51.2-57.5c28.8,0,51.7,26,51.2,57.5C356.7,453.2,334,479,305.4,479z M494.9,479
	c-28.1,0-51.2-25.8-51.2-57.5s22.7-57.5,51.2-57.5c28.8,0,51.7,26,51.2,57.5C546.2,453.2,523.7,479,494.9,479z"/>
</svg>
