<?xml version="1.0" encoding="utf-8"?>
<!-- Generator: Adobe Illustrator 25.4.0, SVG Export Plug-In . SVG Version: 6.00 Build 0)  -->
<svg version="1.1" id="Layer_1" xmlns="http://www.w3.org/2000/svg" xmlns:xlink="http://www.w3.org/1999/xlink" x="0px" y="0px"
	 viewBox="0 0 169.9 169.9" style="enable-background:new 0 0 169.9 169.9;" xml:space="preserve">
<style type="text/css">
	.st0{fill-rule:evenodd;clip-rule:evenodd;}
</style>
<path class="st0" d="M109.6,0c2.9,0,5.3,2.4,5.6,5.3c2.5,26.1,23.3,46.9,49.4,49.4c2.9,0.3,5.3,2.6,5.3,5.6v49.2
	c0,2.9-2.4,5.3-5.3,5.6c-26.1,2.5-46.9,23.3-49.4,49.4c-0.3,2.9-2.6,5.3-5.6,5.3H60.4c-2.9,0-5.3-2.4-5.6-5.3
	c-2.5-26.1-23.3-46.9-49.4-49.4c-2.9-0.3-5.3-2.6-5.3-5.6V60.4c0-2.9,2.4-5.3,5.3-5.6c26.1-2.5,46.9-23.3,49.4-49.4
	C55.1,2.4,57.4,0,60.4,0H109.6z M34.1,84.8c0,28.3,22.9,51.2,51.1,51.2c28.2,0,51.1-22.9,51.1-51.2c0-28.3-22.9-51.2-51.1-51.2
	C57,33.6,34.1,56.5,34.1,84.8z"/>
</svg>
