<?xml version="1.0" encoding="utf-8"?>
<!-- Generator: Adobe Illustrator 25.4.0, SVG Export Plug-In . SVG Version: 6.00 Build 0)  -->
<svg version="1.1" id="Layer_1" xmlns="http://www.w3.org/2000/svg" xmlns:xlink="http://www.w3.org/1999/xlink" x="0px" y="0px"
	 viewBox="0 0 114 91.3" style="enable-background:new 0 0 114 91.3;" xml:space="preserve">
<style type="text/css">
	.st0{fill:#1976D2;}
	.st1{opacity:0.5;fill:#FFE082;enable-background:new    ;}
	.st2{opacity:0.5;fill:#90CAF9;enable-background:new    ;}
	.st3{fill:#FF3D00;}
	.st4{fill:#4CAF50;}
	.st5{fill:#FFC107;}
</style>
<path class="st0" d="M99.6,32.3c-2.3-8.3-7-15.5-13.2-21.1L72.6,25.1c5,4.1,8.4,10.1,9,16.9v4.5c0.1,0,0.2,0,0.2,0
	c7,0,12.6,5.7,12.6,12.6s-5.7,12.6-12.6,12.6c-0.1,0-0.2,0-0.2,0v0h-20H57v19.5h24.6v0c0.1,0,0.2,0,0.2,0
	c17.7,0,32.1-14.4,32.1-32.1C114,48,108.3,38.1,99.6,32.3z"/>
<path class="st1" d="M43.7,54l14.2-14.2c0,0,0,0,0,0L43.7,54C43.7,54,43.7,54,43.7,54z"/>
<path class="st2" d="M43.7,54l14.2-14.2c0,0,0,0,0,0L43.7,54C43.7,54,43.7,54,43.7,54z"/>
<path class="st3" d="M57,0C32.6,0,12.8,19.9,12.8,44.2c0,0.7,0.1,1.4,0.1,2.1h19.5c-0.1-0.7-0.1-1.4-0.1-2.1
	c0-13.6,11.1-24.8,24.8-24.8c5.9,0,11.3,2.1,15.6,5.6l13.8-13.8C78.6,4.3,68.3,0,57,0z"/>
<path class="st2" d="M32.1,71.8L32.1,71.8C32.1,71.8,32.1,71.8,32.1,71.8c-1.8,0-3.6-0.4-5.1-1.1L12.9,84.8c5.4,4.1,12,6.5,19.3,6.5
	c0,0,0,0,0,0l0,0H57V71.8H32.1z"/>
<path class="st4" d="M32.1,71.8L32.1,71.8C32.1,71.8,32.1,71.8,32.1,71.8c-1.8,0-3.6-0.4-5.1-1.1L12.9,84.8c5.4,4.1,12,6.5,19.3,6.5
	c0,0,0,0,0,0l0,0H57V71.8H32.1z"/>
<path class="st5" d="M19.5,59.1c0-7,5.7-12.6,12.6-12.6c5.1,0,9.5,3.1,11.5,7.5l14.2-14.2C51.9,32,42.6,27,32.1,27
	C14.4,27,0,41.4,0,59.1c0,10.5,5.1,19.8,12.9,25.6L27,70.7C22.6,68.7,19.5,64.3,19.5,59.1z"/>
</svg>
