<?xml version="1.0" encoding="utf-8"?>
<!-- Generator: Adobe Illustrator 25.4.0, SVG Export Plug-In . SVG Version: 6.00 Build 0)  -->
<svg version="1.1" id="Layer_1" xmlns="http://www.w3.org/2000/svg" xmlns:xlink="http://www.w3.org/1999/xlink" x="0px" y="0px"
	 viewBox="0 0 84 122.4" style="enable-background:new 0 0 84 122.4;" xml:space="preserve">
<style type="text/css">
	.st0{fill:#48B564;}
	.st1{fill:#FCC60E;}
	.st2{fill:#2C85EB;}
	.st3{fill:#ED5748;}
	.st4{fill:#5695F6;}
</style>
<path class="st0" d="M77.3,67.1L77.3,67.1c0,0-11.3,16.6-20.8,28.9c-8.2,10.6-10.6,19.8-11.3,24.2c-0.3,1.6-1.6,2.8-3.2,2.8
	s-2.9-1.2-3.2-2.8c-0.7-4.4-3.1-13.5-11.3-24.2c-1.3-1.6-2.6-3.4-3.8-5.1L54.7,54l25-29.6c2.8,5.8,4.3,12.3,4.3,19.1
	C84,52.2,81.5,60.3,77.3,67.1z"/>
<path class="st1" d="M54.7,54L23.7,90.9c-8.5-11.3-17-23.8-17-23.8h0c-0.9-1.4-1.7-2.9-2.4-4.4l25-29.6c-2.4,2.8-3.8,6.5-3.8,10.5
	C25.5,52.6,32.9,60,42,60C47.1,60,51.7,57.7,54.7,54z"/>
<path class="st2" d="M55.2,2.2L29.5,32.8L9.8,15.6C17.5,6.1,29.1,0,42,0C46.6,0,51.1,0.8,55.2,2.2z"/>
<path class="st3" d="M29.5,32.8L29.3,33l-25,29.6C1.6,56.9,0,50.4,0,43.5c0-10.6,3.7-20.4,9.8-27.9L29.5,32.8z"/>
<path class="st4" d="M54.7,54c2.4-2.9,3.8-6.5,3.8-10.5C58.5,34.4,51.1,27,42,27c-5.1,0-9.7,2.3-12.7,6L55.2,2.2
	C66,5.9,74.8,13.9,79.7,24.4L54.7,54z"/>
</svg>
