<?xml version="1.0" encoding="utf-8"?>
<!-- Generator: Adobe Illustrator 25.4.0, SVG Export Plug-In . SVG Version: 6.00 Build 0)  -->
<svg version="1.1" id="Layer_1" xmlns="http://www.w3.org/2000/svg" xmlns:xlink="http://www.w3.org/1999/xlink" x="0px" y="0px"
	 viewBox="0 0 23 27" style="enable-background:new 0 0 23 27;" xml:space="preserve">
<style type="text/css">
	.st0{fill:#F96B13;}
	.st1{fill:#CC4E00;}
	.st2{fill:#FFCA73;}
</style>
<path class="st0" d="M0,6.8v13.5L11.5,27v-3.4l-8.6-5.1V8.4L0,6.8z"/>
<path class="st1" d="M20.1,8.4v13.5l2.9-1.7V6.8L20.1,8.4z"/>
<path class="st2" d="M8.6,1.7l11.5,6.8L23,6.8L11.5,0L8.6,1.7z"/>
<path class="st2" d="M0,6.8l2.9,1.7l2.9-1.7L2.9,5.1L0,6.8z"/>
<path class="st1" d="M2.9,8.4v10.1l2.9-1.7v-10L2.9,8.4z"/>
<path class="st1" d="M11.5,23.6V27l2.9-1.7v-3.4L11.5,23.6z"/>
<path class="st2" d="M2.9,18.6l8.6,5.1l2.9-1.7l-8.6-5.1L2.9,18.6z"/>
<path class="st0" d="M8.6,1.7v3.4l8.6,5.1v10.1l2.9,1.7V8.4L8.6,1.7z"/>
</svg>
