<?xml version="1.0" encoding="utf-8"?>
<!-- Generator: Adobe Illustrator 25.4.0, SVG Export Plug-In . SVG Version: 6.00 Build 0)  -->
<svg version="1.1" id="Layer_1" xmlns="http://www.w3.org/2000/svg" xmlns:xlink="http://www.w3.org/1999/xlink" x="0px" y="0px"
	 viewBox="0 0 144 57.1" style="enable-background:new 0 0 144 57.1;" xml:space="preserve">
<style type="text/css">
	.st0{fill:#388E3C;}
	.st1{fill:#37474F;}
	.st2{fill:#2E7D32;}
	.st3{fill:#4CAF50;}
</style>
<path class="st0" d="M51.6,21.4l-14.7,8.1C36.3,29.8,36,30.4,36,31v16.3c0,0.6,0.3,1.2,0.9,1.5l14.7,8.2c0.5,0.3,1.2,0.3,1.8,0
	l14.7-8.2c0.5-0.3,0.9-0.9,0.9-1.5V31c0-0.6-0.3-1.2-0.9-1.5l-14.7-8.1c-0.3-0.2-0.6-0.2-0.9-0.2C52.2,21.1,51.9,21.2,51.6,21.4
	 M127.4,36l-2.5,1.4c-0.1,0.1-0.1,0.1-0.1,0.2v2.7c0,0.1,0.1,0.2,0.1,0.2l2.5,1.4c0.1,0.1,0.2,0.1,0.3,0l2.5-1.4
	c0.1-0.1,0.1-0.1,0.1-0.2v-2.7c0-0.1-0.1-0.2-0.2-0.2l-2.5-1.4c0,0-0.1,0-0.1,0S127.4,36,127.4,36"/>
<path class="st1" d="M107.3,4.1l-7.2-4c-0.2-0.1-0.5-0.1-0.7,0C99.1,0.2,99,0.5,99,0.7l0,24.2l-6.6-3.7c-0.3-0.2-0.6-0.2-0.9-0.2
	s-0.6,0.1-0.9,0.2h0l-14.7,8.1c-0.6,0.3-0.9,0.9-0.9,1.5v16.3c0,0.6,0.3,1.2,0.9,1.5l14.7,8.2c0.5,0.3,1.2,0.3,1.8,0l14.7-8.2
	c0.5-0.3,0.9-0.9,0.9-1.5V5.4C108,4.8,107.7,4.3,107.3,4.1z M98.6,43.4l-6.7,3.7c-0.2,0.1-0.6,0.1-0.8,0l-6.7-3.7
	C84.2,43.2,84,43,84,42.7v-7.4c0-0.3,0.2-0.5,0.4-0.7l6.7-3.7h0c0.1-0.1,0.3-0.1,0.4-0.1c0.1,0,0.3,0,0.4,0.1l6.7,3.7
	c0.3,0.1,0.4,0.4,0.4,0.7v7.4C99,43,98.8,43.2,98.6,43.4z"/>
<path class="st2" d="M51.6,21.4L36,47.3c0,0.6,0.3,1.2,0.9,1.5l14.7,8.2c0.5,0.3,1.2,0.3,1.8,0L69,31c0-0.6-0.3-1.2-0.9-1.5
	l-14.7-8.1c-0.3-0.2-0.6-0.2-0.9-0.2C52.2,21.1,51.9,21.2,51.6,21.4"/>
<path class="st3" d="M51.6,21.4l-14.7,8.1C36.3,29.8,36,30.4,36,31l15.6,25.9c0.5,0.3,1.2,0.3,1.8,0l14.7-8.2
	c0.5-0.3,0.9-0.9,0.9-1.5L53.4,21.4c-0.3-0.2-0.6-0.2-0.9-0.2C52.2,21.1,51.9,21.2,51.6,21.4"/>
<path class="st1" d="M143.1,29.4l-14.7-8.1c-0.3-0.2-0.6-0.2-0.9-0.2s-0.6,0.1-0.9,0.2h0l-14.7,8.1c-0.5,0.3-0.9,0.9-0.9,1.5v16.2
	c0,0.6,0.3,1.2,0.9,1.5l14.7,8.2c0.6,0.3,1.2,0.3,1.8,0l6.8-3.8c0.6-0.3,0.6-1.2,0-1.6l-14.8-8.1c-0.2-0.1-0.4-0.4-0.4-0.7v-7.4
	c0-0.3,0.1-0.5,0.4-0.7l6.7-3.7h0c0.1-0.1,0.3-0.1,0.4-0.1c0.1,0,0.3,0,0.4,0.1l6.7,3.7c0.2,0.1,0.4,0.4,0.4,0.7v6
	c0,0.3,0.1,0.5,0.4,0.6c0.2,0.1,0.5,0.1,0.7,0l7.2-4.2c0.4-0.3,0.7-0.7,0.7-1.3v-5.6C144,30.3,143.7,29.7,143.1,29.4z M32.1,29.4
	l-14.7-8.1c-0.3-0.2-0.6-0.2-0.9-0.2s-0.6,0.1-0.9,0.2h0L0.9,29.4C0.3,29.7,0,30.3,0,30.9v22.4c0,0.3,0.1,0.5,0.4,0.6
	c0.2,0.1,0.5,0.1,0.7,0l7.2-4.2C8.7,49.5,9,49,9,48.5V35.3c0-0.3,0.1-0.5,0.4-0.7l6.7-3.7l0,0c0.1-0.1,0.3-0.1,0.4-0.1
	c0.1,0,0.3,0,0.4,0.1l6.7,3.7c0.2,0.1,0.4,0.4,0.4,0.7v13.2c0,0.5,0.3,1,0.7,1.3l7.2,4.2c0.2,0.1,0.5,0.1,0.7,0
	c0.2-0.1,0.4-0.4,0.4-0.6V30.9C33,30.3,32.7,29.7,32.1,29.4z"/>
</svg>
