<?xml version="1.0" encoding="utf-8"?>
<!-- Generator: Adobe Illustrator 25.4.0, SVG Export Plug-In . SVG Version: 6.00 Build 0)  -->
<svg version="1.0" id="Layer_1" xmlns="http://www.w3.org/2000/svg" xmlns:xlink="http://www.w3.org/1999/xlink" x="0px" y="0px"
	 viewBox="0 0 192 168" style="enable-background:new 0 0 192 168;" xml:space="preserve">
<style type="text/css">
	.st0{fill:#53C1DE;}
</style>
<circle class="st0" cx="96" cy="84" r="17.2"/>
<path class="st0" d="M36.1,114.4c1.7,0.6,3.4,1.1,5.1,1.6c-0.6,2.2-1,4.5-1.5,6.8c-3.9,20.8-0.9,37.3,9,43
	c10.1,5.8,27.2-0.2,43.7-14.7c1.3-1.2,2.6-2.4,3.9-3.6c1.6,1.6,3.4,3.2,5.1,4.6c16,13.8,31.9,19.4,41.7,13.7
	c10.1-5.8,13.4-23.6,9.2-45.2c-0.3-1.6-0.7-3.3-1.1-5.1c1.2-0.3,2.4-0.7,3.5-1.1c21.6-7.2,37.3-18.8,37.3-30.6
	c0-11.4-14.8-22.4-35.2-29.4v0c-2-0.7-4-1.3-6.1-1.9c0.3-1.4,0.6-2.8,0.9-4.2c4.6-22.4,1.6-40.3-8.7-46.2c-9.9-5.7-26,0.2-42.2,14.4
	c-1.6,1.4-3.2,2.8-4.7,4.3c-1-1-2.1-2-3.1-2.9C75.9,2.8,58.8-3.6,48.6,2.4C38.8,8.1,35.8,25,40,46.1c0.4,2.1,0.9,4.2,1.4,6.3
	c-2.4,0.7-4.8,1.4-7,2.2C14.4,61.6,0,72.5,0,83.8C0,95.5,15.3,107.3,36.1,114.4z M87.1,145c-6.2,5.7-13.4,10.2-21.2,13.2
	c-4.2,2-9,2.2-13.2,0.5c-6-3.4-8.4-16.7-5.1-34.5c0.4-2.1,0.9-4.2,1.4-6.3c8.4,1.8,16.9,3,25.5,3.7c5,7,10.4,13.7,16.2,20
	C89.5,142.8,88.3,143.9,87.1,145L87.1,145z M134.7,74.5c-1.8-3.3-3.6-6.6-5.4-9.8c-1.8-3.2-3.8-6.3-5.7-9.4c6,0.8,11.8,1.8,17.2,3
	C139,63.8,137,69.2,134.7,74.5z M134.8,93.2c2.4,5.4,4.5,11,6.3,16.6c-5.8,1.3-11.7,2.3-17.6,3c2-3.2,3.9-6.4,5.8-9.6
	C131.2,99.9,133,96.6,134.8,93.2z M130.5,83.9c-2.5,5.2-5.2,10.3-8.1,15.3c-2.8,5-5.9,9.8-9.1,14.6c-5.6,0.4-11.4,0.6-17.3,0.6
	s-11.6-0.2-17.1-0.5c-3.3-4.8-6.3-9.6-9.2-14.6s-5.6-10-8.1-15.2h0c2.5-5.2,5.2-10.2,8-15.2s5.9-9.8,9.2-14.6
	c5.6-0.4,11.4-0.6,17.2-0.6s11.6,0.2,17.2,0.6c3.2,4.7,6.2,9.6,9.1,14.5S127.9,78.7,130.5,83.9z M62.7,64.8
	c-1.8,3.2-3.6,6.4-5.3,9.7c-2.4-5.6-4.4-11.1-6-16.3c5.4-1.2,11.1-2.2,17.1-2.9C66.4,58.4,64.5,61.6,62.7,64.8z M57.3,93.5
	L57.3,93.5c1.7,3.3,3.5,6.6,5.4,9.8c1.9,3.3,3.9,6.5,5.9,9.7c-5.8-0.6-11.7-1.6-17.4-2.8C52.9,104.8,54.9,99.2,57.3,93.5z
	 M96.3,135.8L96.3,135.8c-3.8-4.1-7.6-8.7-11.4-13.6c3.6,0.2,7.3,0.2,11.1,0.2c3.9,0,7.6-0.1,11.4-0.3
	C104,126.9,100.2,131.5,96.3,135.8z M145.3,147.1L145.3,147.1c-0.3,4.6-2.6,8.8-6.2,11.7c-6,3.4-18.7-1-32.4-12.8
	c-1.6-1.4-3.2-2.8-4.8-4.3c5.7-6.3,11-13,15.8-20.1c8.6-0.7,17.1-2,25.6-3.9c0.4,1.5,0.7,3.1,1,4.6
	C146.2,130.3,146.5,138.8,145.3,147.1z M148.6,60.3c2,0.6,3.8,1.2,5.6,1.8c17.5,6,29.7,14.9,29.7,21.8c0,7.4-13.1,16.8-31.8,23
	c-1,0.3-2.1,0.7-3.2,1c-2.6-8.2-5.8-16.2-9.6-23.9C143,76.2,146,68.3,148.6,60.3z M106.1,22.6L106.1,22.6C120,10.5,133,5.7,139,9.1
	c6.3,3.6,8.8,18.3,4.8,37.6c-0.3,1.3-0.5,2.5-0.9,3.8c-8.3-1.9-16.8-3.2-25.2-4c-4.9-7-10.2-13.7-16-19.9
	C103.2,25.2,104.6,23.9,106.1,22.6z M96.1,32.4c3.9,4.3,7.6,8.8,11.1,13.4c-7.4-0.3-14.9-0.3-22.3,0C88.5,40.9,92.3,36.4,96.1,32.4z
	 M52.6,9.4c6.3-3.7,20.3,1.6,35,14.6c0.9,0.8,1.9,1.7,2.8,2.6c-5.8,6.3-11.2,12.9-16.1,19.9c-8.5,0.8-16.9,2.1-25.2,3.9
	c-0.5-1.9-0.9-3.9-1.3-5.8C44.3,26.5,46.6,12.8,52.6,9.4z M37,62.2c2.1-0.8,4.3-1.4,6.5-2.1c2.6,8.1,5.6,16.1,9.2,23.8
	c-3.6,7.8-6.7,15.9-9.3,24.2l0,0c-1.6-0.4-3.1-0.9-4.6-1.5c-8-2.5-17.1-6.5-23.6-11.7c-3.8-2.6-6.3-6.7-7-11.2
	C8.1,77,19.9,68.2,37,62.2z"/>
</svg>
