<?xml version="1.0" encoding="utf-8"?>
<!-- Generator: Adobe Illustrator 25.4.0, SVG Export Plug-In . SVG Version: 6.00 Build 0)  -->
<svg version="1.1" id="katman_1" xmlns="http://www.w3.org/2000/svg" xmlns:xlink="http://www.w3.org/1999/xlink" x="0px" y="0px"
	 viewBox="0 0 708.2 163.6" style="enable-background:new 0 0 708.2 163.6;" xml:space="preserve">
<polygon points="120.3,0 120.3,14.9 16.6,14.9 16.6,132 0,132 0,0 "/>
<polygon points="120.3,28.2 120.3,43 48.1,43 48.1,132 31.4,132 31.4,28.2 "/>
<polygon points="120.3,56.3 120.3,71.2 79.5,71.2 79.5,132 62.8,132 62.8,56.3 "/>
<path d="M167.7,54.8c19.8,0,36.4,13.1,36.4,37.6c0,1.6,0,3-0.2,5.5h-59.5c0.8,12.4,10.8,20.6,23.3,20.6c10.6,0,17.7-4.9,21.6-11.5
	l12.7,9c-6.8,10.8-18.6,17.6-34.5,17.6c-23,0-39.5-16.3-39.5-39.4C128.1,71.9,144.7,54.8,167.7,54.8 M145.3,85.6h42.1
	c-1.8-10.9-10.6-16.8-20.3-16.8C157.3,68.8,147.5,74.4,145.3,85.6"/>
<path d="M221,56.3h16.6v10.1c4.3-6.1,13.5-11.6,24.3-11.6c20.8,0,36.5,17.7,36.5,39.4s-15.7,39.4-36.5,39.4
	c-10.9,0-20.1-5.6-24.3-11.7v41.8H221V56.3L221,56.3z M259,69.9c-13.5,0-22.7,10.6-22.7,24.2s9.2,24.2,22.7,24.2
	s22.5-10.6,22.5-24.2S272.3,69.9,259,69.9"/>
<rect x="315.4" y="18.4" width="16.6" height="113.5"/>
<path d="M362.8,39.8c-6.1,0-11.2-4.9-11.2-11.2s5.1-11,11.2-11s11,5,11,11S369,39.8,362.8,39.8 M354.5,56.3h16.6v75.6h-16.6
	L354.5,56.3L354.5,56.3z"/>
<path d="M428,133.4c-22.7,0-40-17-40-39.4s17.2-39.4,40-39.4c15.6,0,28.8,8.4,35.3,20.9l-14.5,7.9c-3.7-7.7-11-13.3-20.8-13.3
	c-13.5,0-23,10.4-23,23.9s9.6,23.9,23,23.9c9.6,0,17.1-5.6,20.8-13.3l14.5,7.9C456.8,125.1,443.6,133.4,428,133.4"/>
<path d="M509.6,54.8c10.9,0,20,5.6,24.2,11.6V56.3h16.6v75.6h-16.6v-10.1c-4.3,6.1-13.3,11.7-24.2,11.7c-20.8,0-36.5-17.7-36.5-39.4
	S488.8,54.8,509.6,54.8 M512.6,69.9c-13.5,0-22.5,10.6-22.5,24.2s9,24.2,22.5,24.2s22.5-10.6,22.5-24.2S526,69.9,512.6,69.9"/>
<polygon points="579,132 579,71.1 563.2,71.1 563.2,56.3 579,56.3 579,35.3 595.6,35.3 595.6,56.3 624.3,56.3 624.3,71.1 
	595.6,71.1 595.6,117 624.3,117 624.3,132 "/>
<path d="M671.8,54.8c19.8,0,36.5,13.1,36.5,37.6c0,1.6,0,3-0.2,5.5h-59.5c0.8,12.4,10.8,20.6,23.3,20.6c10.6,0,17.7-4.9,21.6-11.5
	l12.7,9c-6.8,10.8-18.6,17.6-34.5,17.6c-23,0-39.5-16.3-39.5-39.4C632.3,71.9,648.8,54.8,671.8,54.8 M649.4,85.6h42.1
	c-1.8-10.9-10.6-16.8-20.3-16.8S651.7,74.4,649.4,85.6"/>
</svg>
