<?xml version="1.0" encoding="utf-8"?>
<!-- Generator: Adobe Illustrator 25.4.0, SVG Export Plug-In . SVG Version: 6.00 Build 0)  -->
<svg version="1.0" id="Layer_1" xmlns="http://www.w3.org/2000/svg" xmlns:xlink="http://www.w3.org/1999/xlink" x="0px" y="0px"
	 viewBox="0 0 365.3 100.1" style="enable-background:new 0 0 365.3 100.1;" xml:space="preserve">
<style type="text/css">
	.st0{fill:none;}
	.st1{fill:#173647;}
	.st2{fill:#85EA2D;}
</style>
<g>
	<g>
		<g>
			<g>
				<rect x="356.6" y="66.1" class="st0" width="12.2" height="10"/>
				<path class="st1" d="M358.6,70.7h-0.7V67h-1.3v-0.6h3.2V67h-1.3L358.6,70.7L358.6,70.7z"/>
				<path class="st1" d="M362.7,70.7l-1.2-3.6h0c0,0.5,0,1,0,1.5v2.1h-0.6v-4.3h1l1.2,3.4h0l1.2-3.4h1v4.3h-0.7v-2.1
					c0-0.2,0-0.5,0-0.8s0-0.5,0-0.6h0l-1.3,3.6L362.7,70.7z"/>
			</g>
		</g>
	</g>
</g>
<g>
	<g>
		<g>
			<g>
				<g>
					<path class="st2" d="M50,97.7C23.8,97.7,2.4,76.3,2.4,50S23.8,2.4,50,2.4S97.7,23.8,97.7,50S76.3,97.7,50,97.7z"/>
				</g>
				<g>
					<g>
						<path class="st1" d="M50,4.8C75,4.8,95.3,25,95.3,50C95.3,75,75,95.3,50,95.3C25,95.3,4.8,75,4.8,50C4.8,25,25,4.8,50,4.8
							 M50,0C22.4,0,0,22.4,0,50s22.4,50,50,50s50-22.4,50-50S77.6,0,50,0L50,0z"/>
					</g>
				</g>
			</g>
		</g>
	</g>
	<path class="st1" d="M31.5,33.9c-0.2,1.7,0.1,3.5-0.1,5.2c-0.1,1.7-0.3,3.4-0.7,5.2c-0.5,2.4-2,4.3-4.1,5.8
		c4.1,2.7,4.5,6.8,4.8,10.9c0.1,2.3,0.1,4.5,0.3,6.8c0.2,1.7,0.8,2.2,2.6,2.2c0.7,0,1.5,0,2.3,0v5.3c-5.3,0.9-9.7-0.6-10.7-5.1
		c-0.3-1.6-0.6-3.3-0.7-5c-0.1-1.8,0.1-3.6-0.1-5.4c-0.4-4.9-1-6.6-5.7-6.8V47c0.3-0.1,0.7-0.1,1-0.2c2.6-0.1,3.7-0.9,4.2-3.5
		c0.3-1.4,0.4-2.9,0.5-4.3c0.2-2.8,0.1-5.6,0.6-8.4c0.7-4,3.1-5.9,7.2-6.1c1.2-0.1,2.3,0,3.7,0V30c-0.6,0-1,0.1-1.5,0.1
		C31.9,29.9,31.8,31.1,31.5,33.9z M37.9,46.5L37.9,46.5c-2-0.1-3.7,1.4-3.8,3.3c-0.1,1.9,1.4,3.6,3.3,3.7h0.2
		c1.9,0.1,3.5-1.3,3.7-3.3v-0.2C41.4,48.1,39.9,46.6,37.9,46.5z M50,46.5c-1.9-0.1-3.4,1.4-3.5,3.3c0,0.1,0,0.2,0,0.3
		c0,2.1,1.4,3.4,3.6,3.4c2.1,0,3.4-1.4,3.4-3.6C53.5,47.9,52.1,46.5,50,46.5z M62.3,46.5c-2,0-3.6,1.5-3.7,3.5c0,2,1.6,3.5,3.5,3.5
		h0c1.8,0.3,3.6-1.4,3.7-3.5C66,48.2,64.3,46.5,62.3,46.5z M79.3,46.8c-2.2-0.1-3.3-0.8-3.9-3c-0.3-1.3-0.6-2.8-0.6-4.1
		c-0.2-2.6-0.1-5.2-0.3-7.8c-0.4-6.1-4.8-8.3-11.3-7.2v5.3c1,0,1.8,0,2.6,0c1.4,0,2.4,0.5,2.5,2.1c0.1,1.4,0.1,2.8,0.3,4.2
		c0.3,2.8,0.4,5.6,0.9,8.4c0.4,2.3,2,4,3.9,5.3c-3.4,2.3-4.4,5.6-4.6,9.2c-0.1,2.5-0.2,5.1-0.3,7.6c-0.1,2.3-0.9,3.1-3.3,3.1
		c-0.7,0-1.3,0.1-2,0.1v5.4c1.4,0,2.6,0.1,3.9,0c3.9-0.2,6.2-2.1,7-5.9c0.3-2.1,0.5-4.2,0.6-6.3c0.1-1.9,0.1-3.9,0.3-5.8
		c0.3-3,1.7-4.2,4.6-4.4c0.3,0,0.6-0.1,0.8-0.2v-6.1C80,46.9,79.6,46.8,79.3,46.8z"/>
</g>
<g>
	<path class="st1" d="M152,58.1c0,4-1.5,7.2-4.4,9.4c-2.9,2.3-6.9,3.4-11.9,3.4c-5.4,0-9.6-0.7-12.5-2.1v-5.1
		c1.9,0.8,3.9,1.4,6.1,1.9c2.2,0.5,4.4,0.7,6.6,0.7c3.5,0,6.2-0.7,8-2c1.8-1.3,2.7-3.2,2.7-5.6c0-1.6-0.3-2.9-1-3.9
		c-0.6-1-1.7-1.9-3.2-2.8c-1.5-0.9-3.8-1.8-6.8-2.9c-4.3-1.5-7.3-3.3-9.1-5.4c-1.8-2.1-2.7-4.8-2.7-8.2c0-3.5,1.3-6.3,4-8.4
		c2.7-2.1,6.2-3.1,10.5-3.1c4.6,0,8.7,0.8,12.6,2.5l-1.7,4.6c-3.8-1.6-7.5-2.4-11-2.4c-2.8,0-5,0.6-6.6,1.8c-1.6,1.2-2.4,2.9-2.4,5
		c0,1.6,0.3,2.9,0.9,3.9c0.6,1,1.6,1.9,3,2.8c1.4,0.8,3.5,1.8,6.4,2.8c4.8,1.7,8.1,3.5,9.9,5.5C151.1,52.4,152,55,152,58.1z"/>
	<path class="st1" d="M185,70.3l-6.3-20.1c-0.4-1.2-1.1-4-2.2-8.4h-0.2c-0.8,3.7-1.6,6.5-2.2,8.5l-6.5,20.1h-6L152.2,36h5.4
		c2.2,8.6,3.9,15.2,5.1,19.7c1.2,4.5,1.8,7.5,2,9.1h0.2c0.2-1.2,0.6-2.7,1.1-4.6c0.5-1.9,1-3.4,1.3-4.5l6.3-19.7h5.6l6.1,19.7
		c1.2,3.6,2,6.6,2.4,9h0.2c0.1-0.8,0.3-1.9,0.7-3.5s2.5-10,6.5-25.3h5.4l-9.5,34.3L185,70.3L185,70.3z"/>
	<path class="st1" d="M224.8,70.3l-1-4.9h-0.2c-1.7,2.2-3.4,3.6-5.1,4.4c-1.7,0.8-3.8,1.1-6.4,1.1c-3.4,0-6.1-0.9-8-2.6
		c-1.9-1.8-2.9-4.2-2.9-7.5c0-6.9,5.5-10.6,16.6-10.9l5.8-0.2v-2.1c0-2.7-0.6-4.7-1.7-6c-1.2-1.3-3-1.9-5.6-1.9
		c-2.9,0-6.1,0.9-9.7,2.6l-1.6-4c1.7-0.9,3.5-1.6,5.6-2.2c2-0.5,4-0.8,6.1-0.8c4.1,0,7.1,0.9,9.1,2.7c2,1.8,3,4.7,3,8.7v23.4
		L224.8,70.3L224.8,70.3z M213.1,66.6c3.2,0,5.8-0.9,7.6-2.7s2.8-4.3,2.8-7.5v-3.1l-5.2,0.2c-4.1,0.1-7.1,0.8-8.9,1.9
		c-1.8,1.1-2.7,2.9-2.7,5.3c0,1.9,0.6,3.3,1.7,4.3C209.4,66.1,211,66.6,213.1,66.6z"/>
	<path class="st1" d="M264.3,36v3.3l-6.4,0.8c0.6,0.7,1.1,1.7,1.6,2.9c0.5,1.2,0.7,2.5,0.7,4c0,3.4-1.1,6-3.4,8c-2.3,2-5.4,3-9.5,3
		c-1,0-2-0.1-2.9-0.2c-2.2,1.2-3.3,2.6-3.3,4.4c0,0.9,0.4,1.6,1.2,2.1c0.8,0.4,2.1,0.7,4,0.7h6.1c3.7,0,6.6,0.8,8.6,2.3s3,3.8,3,6.8
		c0,3.8-1.5,6.7-4.6,8.7s-7.5,3-13.3,3c-4.5,0-7.9-0.8-10.4-2.5c-2.4-1.7-3.6-4-3.6-7.1c0-2.1,0.7-3.9,2-5.4s3.2-2.6,5.6-3.1
		c-0.9-0.4-1.6-1-2.2-1.8c-0.6-0.8-0.9-1.8-0.9-2.9c0-1.3,0.3-2.3,1-3.3c0.7-0.9,1.7-1.8,3.2-2.7c-1.8-0.7-3.2-2-4.3-3.7
		c-1.1-1.8-1.7-3.8-1.7-6c0-3.8,1.1-6.7,3.4-8.7s5.4-3.1,9.6-3.1c1.8,0,3.4,0.2,4.9,0.6L264.3,36L264.3,36z M236.9,76.1
		c0,1.9,0.8,3.3,2.3,4.2c1.6,1,3.8,1.4,6.7,1.4c4.4,0,7.6-0.7,9.7-2c2.1-1.3,3.1-3.1,3.1-5.3c0-1.9-0.6-3.1-1.7-3.9
		c-1.1-0.7-3.3-1.1-6.5-1.1h-6.2c-2.4,0-4.2,0.6-5.5,1.7C237.6,72.3,236.9,74,236.9,76.1z M239.8,47c0,2.4,0.7,4.2,2,5.4
		c1.4,1.2,3.2,1.8,5.7,1.8c5.1,0,7.6-2.5,7.6-7.4c0-5.2-2.6-7.7-7.7-7.7c-2.4,0-4.3,0.7-5.6,2C240.4,42.4,239.8,44.4,239.8,47z"/>
	<path class="st1" d="M298.8,36v3.3l-6.4,0.8c0.6,0.7,1.1,1.7,1.6,2.9c0.5,1.2,0.7,2.5,0.7,4c0,3.4-1.1,6-3.4,8s-5.4,3-9.5,3
		c-1,0-2-0.1-2.9-0.2c-2.2,1.2-3.3,2.6-3.3,4.4c0,0.9,0.4,1.6,1.2,2.1c0.8,0.4,2.1,0.7,4,0.7h6.1c3.7,0,6.6,0.8,8.6,2.3s3,3.8,3,6.8
		c0,3.8-1.5,6.7-4.6,8.7s-7.5,3-13.3,3c-4.5,0-7.9-0.8-10.4-2.5c-2.4-1.7-3.6-4-3.6-7.1c0-2.1,0.7-3.9,2-5.4s3.2-2.6,5.6-3.1
		c-0.9-0.4-1.6-1-2.2-1.8c-0.6-0.8-0.9-1.8-0.9-2.9c0-1.3,0.3-2.3,1-3.3c0.7-0.9,1.7-1.8,3.2-2.7c-1.8-0.7-3.2-2-4.3-3.7
		c-1.1-1.8-1.7-3.8-1.7-6c0-3.8,1.1-6.7,3.4-8.7s5.4-3.1,9.6-3.1c1.8,0,3.4,0.2,4.9,0.6L298.8,36L298.8,36z M271.5,76.1
		c0,1.9,0.8,3.3,2.3,4.2c1.6,1,3.8,1.4,6.7,1.4c4.4,0,7.6-0.7,9.7-2c2.1-1.3,3.1-3.1,3.1-5.3c0-1.9-0.6-3.1-1.7-3.9
		c-1.1-0.7-3.3-1.1-6.5-1.1H279c-2.4,0-4.2,0.6-5.5,1.7C272.1,72.3,271.5,74,271.5,76.1z M274.3,47c0,2.4,0.7,4.2,2,5.4
		c1.4,1.2,3.2,1.8,5.7,1.8c5.1,0,7.6-2.5,7.6-7.4c0-5.2-2.6-7.7-7.7-7.7c-2.4,0-4.3,0.7-5.6,2C274.9,42.4,274.3,44.4,274.3,47z"/>
	<path class="st1" d="M316.5,70.9c-5.1,0-9.1-1.5-12-4.6c-2.9-3.1-4.4-7.4-4.4-12.9c0-5.5,1.4-9.9,4.1-13.2s6.4-4.9,11-4.9
		c4.3,0,7.7,1.4,10.2,4.2s3.8,6.6,3.8,11.2v3.3h-23.6c0.1,4,1.1,7.1,3.1,9.2c1.9,2.1,4.6,3.1,8.2,3.1c3.7,0,7.3-0.8,11-2.3v4.6
		c-1.8,0.8-3.6,1.4-5.2,1.7C320.8,70.8,318.8,70.9,316.5,70.9z M315.1,39.7c-2.8,0-5,0.9-6.6,2.7c-1.6,1.8-2.6,4.3-2.9,7.5h17.9
		c0-3.3-0.7-5.8-2.2-7.5C319.9,40.6,317.8,39.7,315.1,39.7z"/>
	<path class="st1" d="M350.6,35.4c1.5,0,2.9,0.1,4.1,0.4l-0.7,4.8c-1.4-0.3-2.7-0.5-3.8-0.5c-2.8,0-5.1,1.1-7.1,3.4s-3,5.1-3,8.4
		v18.4h-5.2V36h4.3l0.6,6.4h0.2c1.3-2.2,2.8-4,4.6-5.2C346.5,36,348.4,35.4,350.6,35.4z"/>
</g>
</svg>
