<?xml version="1.0" encoding="utf-8"?>
<!-- Generator: Adobe Illustrator 25.4.0, SVG Export Plug-In . SVG Version: 6.00 Build 0)  -->
<svg version="1.1" id="Layer_1" xmlns="http://www.w3.org/2000/svg" xmlns:xlink="http://www.w3.org/1999/xlink" x="0px" y="0px"
	 viewBox="0 0 114.7 153" style="enable-background:new 0 0 114.7 153;" xml:space="preserve">
<style type="text/css">
	.st0{fill:#00C98D;}
	.st1{fill:#FFFFFF;fill-opacity:0.4;}
</style>
<path class="st0" d="M0,133.8c25.3,25.3,66.4,25.3,91.8,0c25.3-25.3,25.3-66.4,0-91.8L80.3,53.4c19,19,19,49.8,0,68.8
	c-19,19-49.8,19-68.8,0L0,133.8z"/>
<path class="st0" d="M22.9,110.8c12.7,12.7,33.2,12.7,45.9,0c12.7-12.7,12.7-33.2,0-45.9L57.4,76.4c6.3,6.3,6.3,16.6,0,22.9
	c-6.3,6.3-16.6,6.3-22.9,0L22.9,110.8z"/>
<path class="st0" d="M114.7,19C89.4-6.3,48.3-6.3,22.9,19c-25.3,25.3-25.3,66.4,0,91.8l11.5-11.5c-19-19-19-49.8,0-68.8
	c19-19,49.8-19,68.8,0L114.7,19z"/>
<path class="st0" d="M91.8,42c-12.7-12.7-33.2-12.7-45.9,0c-12.7,12.7-12.7,33.2,0,45.9l11.5-11.5C51,70,51,59.8,57.4,53.4
	c6.3-6.3,16.6-6.3,22.9,0L91.8,42z"/>
<path class="st1" d="M114.7,19C89.4-6.3,48.3-6.3,22.9,19c-25.3,25.3-25.3,66.4,0,91.8l11.5-11.5c-19-19-19-49.8,0-68.8
	c19-19,49.8-19,68.8,0L114.7,19z"/>
<path class="st1" d="M91.8,42c-12.7-12.7-33.2-12.7-45.9,0c-12.7,12.7-12.7,33.2,0,45.9l11.5-11.5C51,70,51,59.8,57.4,53.4
	c6.3-6.3,16.6-6.3,22.9,0L91.8,42z"/>
</svg>
