<?xml version="1.0" encoding="utf-8"?>
<!-- Generator: Adobe Illustrator 25.4.0, SVG Export Plug-In . SVG Version: 6.00 Build 0)  -->
<svg version="1.1" id="Layer_1" xmlns="http://www.w3.org/2000/svg" xmlns:xlink="http://www.w3.org/1999/xlink" x="0px" y="0px"
	 viewBox="0 0 120 119.7" style="enable-background:new 0 0 120 119.7;" xml:space="preserve">
<style type="text/css">
	.st0{fill:#29B6F6;}
	.st1{fill:#0277BD;}
	.st2{fill:#0288D1;}
</style>
<path class="st0" d="M120,21.2v77.3c0,3.8-2.4,7.2-5.9,8.5l-26.5,12.4L90,86.8v-54L87.6,0.3L114,12.7C117.6,14,120,17.4,120,21.2z"
	/>
<path class="st1" d="M15,89.5l75-56.7V3.9c0-3.6-4.4-5.3-6.8-2.6L1.9,75.6c-2.7,2.5-2.5,6.8,0.3,9.1c0,0,4,3.7,5.4,4.7
	C9.9,91,12.8,91.1,15,89.5z"/>
<path class="st2" d="M15,30.2l75,56.7v28.9c0,3.6-4.4,5.3-6.8,2.6L1.9,44.1c-2.7-2.5-2.5-6.8,0.3-9.1c0,0,4-3.7,5.4-4.7
	C9.9,28.7,12.8,28.6,15,30.2z"/>
</svg>
