<?xml version="1.0" encoding="utf-8"?>
<!-- Generator: Adobe Illustrator 25.4.0, SVG Export Plug-In . SVG Version: 6.00 Build 0)  -->
<svg version="1.1" id="Layer_1" xmlns="http://www.w3.org/2000/svg" xmlns:xlink="http://www.w3.org/1999/xlink" x="0px" y="0px"
	 viewBox="0 0 430.2 448.6" style="enable-background:new 0 0 430.2 448.6;" xml:space="preserve">
<style type="text/css">
	.st0{fill:#2885D1;}
	.st1{opacity:0.7;fill:#FFFFFF;enable-background:new    ;}
	.st2{fill:#1D2D52;}
	.st3{fill:none;stroke:#1D2D52;stroke-linecap:round;stroke-linejoin:round;}
	.st4{fill:#1D2D52;stroke:#1D2D52;stroke-linecap:round;stroke-linejoin:round;}
	.st5{fill:#FFFFFF;stroke:#1D2D52;stroke-linecap:round;stroke-linejoin:round;}
	.st6{fill:#FFFFFF;stroke:#1D2D52;stroke-width:1.0954;stroke-linecap:round;stroke-linejoin:round;}
	.st7{fill:#1D2D52;stroke:#1D2D52;stroke-width:1.0954;stroke-linecap:round;stroke-linejoin:round;}
	.st8{fill:#2885D1;stroke:#1D2D52;stroke-width:1.0954;stroke-linecap:round;stroke-linejoin:round;}
	.st9{fill:#FFFFFF;stroke:#1D2D52;stroke-miterlimit:10;}
	.st10{fill:#FFFFFF;stroke:#1D2D52;stroke-width:1;stroke-miterlimit:9.9999;}
	.st11{fill:none;stroke:#1D2D52;stroke-width:0.5;stroke-miterlimit:10;}
	.st12{fill:#1D2D52;stroke:#1D2D52;stroke-width:0.9727;stroke-miterlimit:10;}
	.st13{fill:#FFFFFF;stroke:#1D2D52;stroke-width:0.9727;stroke-miterlimit:10;}
	.st14{fill:#2885D1;stroke:#1D2D52;stroke-width:0.9727;stroke-miterlimit:10;}
	.st15{fill:none;stroke:#1D2D52;stroke-miterlimit:10;}
</style>
<g>
	<g id="freepik--background-simple--inject-1--inject-132">
		<path class="st0" d="M410.5,201.7c2-26.8-4.2-54.7-12.6-79.6c-12.5-37-36.7-74.9-77.4-83.7c-23.5-5-47.4,0.4-67.6,13
			c-19.4,12.2-34.5,27.9-58.3,30.9c-24.1,3.1-48.8,1.8-73.1,1.8c-62.3,0-112.9,65-100.2,132.7S93.5,331.5,144,331.5
			c45.4,0,82.8-27.1,126-34.3c21.4-3.6,42.9,0.7,64.1-4.7c24.6-6.3,47.8-21.3,61.4-42.9C404.7,234.7,409.2,218.4,410.5,201.7z"/>
		<path class="st1" d="M410.5,201.7c2-26.8-4.2-54.7-12.6-79.6c-12.5-37-36.7-74.9-77.4-83.7c-23.5-5-47.4,0.4-67.6,13
			c-19.4,12.2-34.5,27.9-58.3,30.9c-24.1,3.1-48.8,1.8-73.1,1.8c-62.3,0-112.9,65-100.2,132.7S93.5,331.5,144,331.5
			c45.4,0,82.8-27.1,126-34.3c21.4-3.6,42.9,0.7,64.1-4.7c24.6-6.3,47.8-21.3,61.4-42.9C404.7,234.7,409.2,218.4,410.5,201.7z"/>
	</g>
	<g id="freepik--Shadow--inject-1--inject-132">
		<ellipse class="st2" cx="215.8" cy="348.7" rx="194.5" ry="5.4"/>
	</g>
	<g id="freepik--Crane--inject-1--inject-132">
		<polygon class="st3" points="314.4,343.7 296.4,343.7 296.4,19.3 314.4,40.3 		"/>
		<polygon class="st3" points="296.5,267.3 314.2,267.3 296.5,250.3 314.2,250.3 		"/>
		<polygon class="st3" points="296.5,249.8 314.2,249.8 296.5,232.8 314.2,232.8 		"/>
		<polygon class="st3" points="296.5,302.2 314.2,302.2 296.5,285.1 314.2,285.1 		"/>
		<polygon class="st3" points="296.5,284.7 314.2,284.7 296.5,267.6 314.2,267.6 		"/>
		<polygon class="st3" points="296.5,232.3 314.2,232.3 296.5,215.3 314.2,215.3 		"/>
		<polygon class="st3" points="296.5,214.8 314.2,214.8 296.5,197.8 314.2,197.8 		"/>
		<polygon class="st3" points="296.5,197.3 314.2,197.3 296.5,180.3 314.2,180.3 		"/>
		<polygon class="st3" points="296.5,179.8 314.2,179.8 296.5,162.8 314.2,162.8 		"/>
		<polygon class="st3" points="296.5,162.3 314.2,162.3 296.5,145.3 314.2,145.3 		"/>
		<polygon class="st3" points="296.5,144.8 314.2,144.8 296.5,127.8 314.2,127.8 		"/>
		<polygon class="st3" points="296.5,127.3 314.2,127.3 296.5,110.3 314.2,110.3 		"/>
		<polygon class="st3" points="296.5,109.8 314.2,109.8 296.5,92.8 314.2,92.8 		"/>
		<polygon class="st3" points="296.5,92.3 314.2,92.3 296.5,75.3 314.2,75.3 		"/>
		<polygon class="st3" points="296.5,74.8 314.2,74.8 296.5,57.8 314.2,57.8 		"/>
		<polygon class="st3" points="296.5,57.3 314.2,57.3 296.5,40.3 314.2,40.3 		"/>
		<polygon class="st3" points="397.9,57.8 389.2,52.3 327,52.3 319.4,57.8 		"/>
		<rect x="247.4" y="57.3" class="st4" width="152" height="4"/>
		<polyline class="st3" points="389.2,52.3 296.4,19.3 327,52.3 		"/>
		<line class="st3" x1="296.4" y1="19.3" x2="247.4" y2="57.3"/>
		<rect x="289.9" y="65.8" class="st4" width="37.5" height="24"/>
		<rect x="289.9" y="320.2" class="st4" width="37.5" height="24"/>
		<rect x="297.7" y="70.8" class="st5" width="21.9" height="7"/>
		<line class="st3" x1="399.4" y1="61.3" x2="399.4" y2="104.5"/>
		<rect x="394" y="119.2" class="st4" width="11.1" height="12.6"/>
		<polyline class="st3" points="394,119.2 399.5,103.6 405.1,119.2 		"/>
	</g>
	<g id="freepik--Device--inject-1--inject-132">
		<path class="st6" d="M251.3,317.1v-22.2h-65.6v22.3c0,7.3-2.5,14.3-7,20l-2.9,3.6H261l-2.9-3.6
			C253.7,331.5,251.3,324.4,251.3,317.1z"/>
		<path class="st0" d="M181.7,332.7h73.6c-2.6-4.8-4-10.1-4-15.6v-22.2h-65.6v22.3C185.7,322.6,184.3,328,181.7,332.7z"/>
		<rect x="185.7" y="298.2" class="st7" width="65.5" height="9.4"/>
		<path class="st7" d="M96.1,104.3H341c5.1,0,9.3,4.2,9.3,9.3v179c0,5.1-4.2,9.3-9.3,9.3H96.1c-5.1,0-9.3-4.2-9.3-9.3v-179
			C86.8,108.5,90.9,104.3,96.1,104.3z"/>
		<path class="st6" d="M86.8,271.2h263.5l0,0v21.4c0,5.1-4.2,9.3-9.3,9.3l0,0H96.1c-5.1,0-9.3-4.2-9.3-9.3l0,0L86.8,271.2
			L86.8,271.2L86.8,271.2z"/>
		<rect x="100" y="116.6" class="st8" width="237" height="139.6"/>
		<path class="st7" d="M223.4,286.6c0-2.7-2.2-4.9-4.8-4.9s-4.9,2.2-4.9,4.9c0,2.7,2.2,4.9,4.9,4.9l0,0
			C221.2,291.4,223.3,289.2,223.4,286.6L223.4,286.6z"/>
		<rect x="175.9" y="340.8" class="st6" width="85.2" height="4"/>
	</g>
	<g id="freepik--Tools--inject-1--inject-132">
		<path class="st7" d="M295.6,151.6c5.6-5.6,8-13.6,6.5-21.3l-14.9,14.9c-1.8,1.7-4.6,1.7-6.4,0l-12.4-12.4c-1.8-1.8-1.8-4.6,0-6.4
			l0,0l14.9-14.9c-12.9-2.5-25.3,5.9-27.8,18.7c-0.9,4.4-0.5,9,1.2,13.1l-38.4,37.5l-3.7-3.7l6-6c0.6-0.6,0.6-1.7,0-2.3l-4.7-4.7
			c-0.6-0.6-1.7-0.6-2.3,0l-2.3,2.3l-5.1-5.1l1.9-1.9c0.9-0.9,0.9-2.3,0-3.1l-41.9-41.9c-4.2-4.2-11-4.2-15.2,0l0,0l-4.3,4.3
			c-4.2,4.2-4.2,11,0,15.2l0,0l41.9,41.9c0.9,0.9,2.3,0.9,3.1,0l1.9-1.9l5.1,5.1l-2.3,2.3c-0.6,0.6-0.6,1.7,0,2.3l0,0l4.7,4.7
			c0.6,0.6,1.7,0.6,2.3,0l6-6l3.6,3.6l-31.8,31c-12.2-4.7-26,1.3-30.7,13.5c-1.6,4.2-2,8.7-1.2,13.1l14.9-14.9
			c1.8-1.8,4.6-1.8,6.4,0l0,0l12.4,12.3c1.8,1.8,1.8,4.6,0,6.4l0,0l-14.9,14.9c12.9,2.5,25.3-5.9,27.8-18.7c0.9-4.4,0.5-9-1.2-13.1
			l31.8-31l43.4,43.3c-1.3,3.3-0.5,7,2,9.5l10.5,10.5l12.6-12.6l-10.5-10.5c-2.5-2.5-6.2-3.3-9.5-2l-43.3-43.3l38.4-37.4
			C279,160.3,289,158.2,295.6,151.6z"/>
		<path class="st9" d="M192.3,225.1l75.3-73.5c12.2,4.8,25.9-1.3,30.7-13.5c1.6-4.2,2-8.8,1.2-13.2l-14.9,14.9
			c-1.8,1.8-4.6,1.8-6.4,0l0,0l-12.4-12.4c-1.8-1.8-1.8-4.6,0-6.3l0,0l14.9-14.9c-12.9-2.5-25.3,5.9-27.8,18.7
			c-0.9,4.4-0.4,9,1.2,13.2l-75.3,73.5c-12.2-4.7-25.9,1.3-30.7,13.5c-1.6,4.2-2,8.7-1.2,13.1l14.9-14.9c1.8-1.8,4.6-1.8,6.4,0l0,0
			l12.4,12.4c1.8,1.8,1.8,4.6,0,6.3l0,0l-14.9,14.8c12.9,2.5,25.3-5.9,27.8-18.7C194.3,233.8,193.9,229.2,192.3,225.1L192.3,225.1z"
			/>
		<path class="st9" d="M186.5,217.4L186.5,217.4c-1.2-1.2-1.2-3.1,0-4.4l67.7-65.9c1.2-1.2,3.2-1.2,4.4,0l0,0c1.2,1.2,1.2,3.2,0,4.4
			l-67.7,65.9C189.6,218.6,187.7,218.6,186.5,217.4z"/>
		
			<rect x="237" y="153.7" transform="matrix(0.7071 -0.7071 0.7071 0.7071 -74.7636 230.2906)" class="st10" width="7.2" height="103.3"/>
		<path class="st9" d="M292.5,244.8l-12.6,12.6l-10.5-10.5c-3.5-3.5-3.5-9.1,0-12.6l0,0c3.5-3.5,9.1-3.5,12.6,0l0,0L292.5,244.8z"/>
		
			<rect x="189.7" y="156.3" transform="matrix(0.7071 -0.7071 0.7071 0.7071 -57.4555 188.261)" class="st10" width="17.6" height="14.3"/>
		<path class="st9" d="M144.2,113.4l4.3-4.3c4.2-4.2,11-4.2,15.2,0l0,0l41.9,41.9c0.9,0.9,0.9,2.3,0,3.1l-16.4,16.4
			c-0.9,0.9-2.3,0.9-3.1,0l-41.9-41.9C140,124.4,140,117.6,144.2,113.4z"/>
		<path class="st9" d="M193.9,175.9l17.1-17.1c0.6-0.6,1.7-0.6,2.3,0l4.7,4.7c0.6,0.6,0.6,1.7,0,2.3l-17.1,17.1
			c-0.6,0.6-1.7,0.6-2.3,0l-4.7-4.7C193.2,177.6,193.2,176.6,193.9,175.9z"/>
		<path class="st9" d="M191.5,164.2l-3.4,3.4l-41.1-41c-1-1-1-2.5,0-3.4l0,0c0.9-1,2.5-1,3.4,0l0,0L191.5,164.2z"/>
		<path class="st9" d="M197.4,158.4l-3.5,3.4l-41.1-41.1c-1-1-1-2.5,0-3.4l0,0c0.9-1,2.5-1,3.4,0l0,0L197.4,158.4z"/>
		<path class="st9" d="M203.3,152.5l-3.5,3.4l-41.1-41.1c-1-1-1-2.5,0-3.4l0,0c0.9-1,2.5-1,3.4,0l0,0L203.3,152.5z"/>
	</g>
	<g id="freepik--Ladders--inject-1--inject-132">
		<polygon class="st9" points="340.9,346 337.6,346 316.1,169.3 319.4,169.3 		"/>
		<polygon class="st9" points="366.9,346 363.6,346 342.1,169.3 345.4,169.3 		"/>
		<polygon class="st9" points="345.6,184 319.6,184 319,178.5 345,178.5 		"/>
		<polygon class="st9" points="348.1,204.1 322.1,204.1 321.4,198.6 347.4,198.6 		"/>
		<polygon class="st9" points="350.5,224.2 324.5,224.2 323.9,218.7 349.9,218.7 		"/>
		<polygon class="st9" points="353,244.3 327,244.3 326.3,238.9 352.3,238.9 		"/>
		<polygon class="st9" points="355.4,264.4 329.4,264.4 328.8,259 354.8,259 		"/>
		<polygon class="st9" points="357.9,284.6 331.9,284.6 331.2,279.1 357.2,279.1 		"/>
		<polygon class="st9" points="360.3,304.7 334.3,304.7 333.7,299.2 359.7,299.2 		"/>
		<polygon class="st9" points="362.8,324.8 336.8,324.8 336.1,319.4 362.1,319.4 		"/>
		<line class="st11" x1="319.2" y1="180.6" x2="322.6" y2="180.6"/>
		<line class="st11" x1="320" y1="182.2" x2="326.6" y2="182.2"/>
		<line class="st11" x1="345.2" y1="182.2" x2="340.4" y2="182.2"/>
		<line class="st11" x1="347.6" y1="201.6" x2="343.2" y2="201.6"/>
		<line class="st11" x1="322.4" y1="202.6" x2="332.6" y2="202.6"/>
		<line class="st11" x1="324.2" y1="221.4" x2="333" y2="221.4"/>
		<line class="st11" x1="324.6" y1="223" x2="329.4" y2="223"/>
		<line class="st11" x1="352.8" y1="241.2" x2="347.4" y2="241.2"/>
		<line class="st11" x1="352.4" y1="242.8" x2="343.4" y2="242.8"/>
		<line class="st11" x1="360.2" y1="302.6" x2="352" y2="302.6"/>
		<line class="st11" x1="334" y1="301.1" x2="339" y2="301.1"/>
		<line class="st11" x1="350.7" y1="302.6" x2="344.2" y2="302.6"/>
		<line class="st11" x1="336.5" y1="321.9" x2="343.5" y2="321.9"/>
		<line class="st11" x1="338" y1="323.6" x2="346" y2="323.6"/>
		<line class="st11" x1="330" y1="262.6" x2="332.2" y2="262.6"/>
		<line class="st11" x1="354.5" y1="262.1" x2="346.2" y2="262.1"/>
		<polygon class="st7" points="146.1,240.3 142.1,245.5 56,178.3 59.9,173.1 		"/>
		<polygon class="st7" points="56,240.3 59.9,245.5 146.1,178.3 142.1,173.1 		"/>
		<polygon class="st7" points="146.1,315.9 143.6,322.5 56,253.8 58.5,247.1 		"/>
		<polygon class="st7" points="56,315.9 56.6,323.7 146.1,253.8 142.1,248.6 		"/>
		<rect x="54.5" y="172.4" class="st7" width="3.5" height="173.6"/>
		<rect x="143.1" y="172.4" class="st7" width="3.5" height="173.6"/>
		<polygon class="st6" points="129.2,240.3 125.3,245.5 39.1,178.3 43.1,173.1 		"/>
		<polygon class="st6" points="39.1,240.3 43.1,245.5 129.2,178.3 125.3,173.1 		"/>
		<polygon class="st6" points="129.2,315.9 126.8,322.5 39.1,253.8 40.4,247.1 		"/>
		<polygon class="st6" points="39.1,315.9 39.7,323.7 129.2,253.8 125.3,248.6 		"/>
		<rect x="37.6" y="172.4" class="st6" width="3.5" height="173.6"/>
		<rect x="126.2" y="172.4" class="st6" width="3.5" height="173.6"/>
		<rect x="33.1" y="170.8" class="st6" width="101.1" height="5.5"/>
		<rect x="121.7" y="170.8" class="st7" width="28.1" height="5.5"/>
		<rect x="33.1" y="242.8" class="st6" width="101.1" height="5.5"/>
		<rect x="121.7" y="242.8" class="st7" width="28.1" height="5.5"/>
		<polygon class="st12" points="260.1,346 252.2,346 262.8,284.2 270.7,284.2 		"/>
		<polygon class="st13" points="276,346 283.9,346 273.3,284.2 265.4,284.2 		"/>
		<polygon class="st12" points="372.5,346 364.5,346 375.1,284.2 383,284.2 		"/>
		<polygon class="st13" points="388.3,346 396.2,346 385.6,284.2 377.7,284.2 		"/>
		<rect x="242.9" y="266.3" class="st14" width="151" height="21"/>
		<rect x="246.5" y="266.3" class="st14" width="151" height="21"/>
		<polygon class="st2" points="249,287.3 261.8,287.3 268.4,266.3 255.6,266.3 		"/>
		<polygon class="st2" points="299.7,266.3 286.9,266.3 280.3,287.3 293.1,287.3 		"/>
		<polygon class="st2" points="393.6,266.3 380.8,266.3 374.1,287.3 387,287.3 		"/>
		<polygon class="st2" points="362.3,266.3 349.5,266.3 342.9,287.3 355.7,287.3 		"/>
		<polygon class="st2" points="331,266.3 318.2,266.3 311.6,287.3 324.4,287.3 		"/>
		<line class="st15" x1="396.7" y1="275.6" x2="371.7" y2="275.6"/>
		<line class="st15" x1="396.2" y1="279.1" x2="392.3" y2="279.1"/>
		<line class="st15" x1="245.9" y1="278.2" x2="270.9" y2="278.2"/>
		<line class="st15" x1="246.3" y1="274.3" x2="277.9" y2="274.3"/>
	</g>
	<g>
		<path class="st2" d="M62,415.1c-2.4-1.3-4.2-3.2-5.5-5.7s-2-5.3-2-8.6c0-3.3,0.7-6.1,2-8.6s3.1-4.3,5.5-5.7c2.4-1.3,5.2-2,8.3-2
			c3.8,0,7.1,1,10,3c0.5,0.4,0.9,0.7,1.1,1.2c0.2,0.4,0.3,1,0.3,1.6c0,0.9-0.3,1.7-0.8,2.4c-0.5,0.6-1.2,1-1.9,1
			c-0.4,0-0.9-0.1-1.2-0.2s-0.8-0.4-1.3-0.7c-1-0.6-2-1.1-3-1.3c-0.9-0.3-1.9-0.4-2.9-0.4c-2.7,0-4.6,0.8-5.9,2.4s-2,4-2,7.3
			s0.7,5.7,2,7.3c1.3,1.6,3.3,2.4,5.9,2.4c0.9,0,1.8-0.1,2.6-0.4c0.8-0.3,1.9-0.7,3.2-1.3c0.6-0.3,1.1-0.6,1.4-0.7s0.7-0.2,1.1-0.2
			c0.7,0,1.4,0.3,1.9,1c0.5,0.6,0.8,1.4,0.8,2.4c0,0.6-0.1,1.2-0.3,1.6s-0.6,0.8-1.1,1.2c-2.9,2-6.2,3-10,3
			C67.2,417.1,64.4,416.4,62,415.1z"/>
		<path class="st2" d="M92.4,415.1c-2.4-1.3-4.2-3.2-5.5-5.7c-1.3-2.4-1.9-5.3-1.9-8.6s0.6-6.2,1.9-8.6s3.1-4.3,5.5-5.6
			c2.4-1.3,5.2-2,8.4-2s6,0.7,8.4,2s4.2,3.2,5.5,5.6s1.9,5.3,1.9,8.6s-0.6,6.2-1.9,8.6s-3.1,4.3-5.5,5.7c-2.4,1.3-5.2,2-8.4,2
			S94.8,416.4,92.4,415.1z M106.4,408.2c1.3-1.7,2-4.1,2-7.4s-0.7-5.7-2-7.4c-1.4-1.7-3.2-2.5-5.6-2.5s-4.3,0.8-5.6,2.5
			c-1.3,1.7-2,4.1-2,7.4s0.7,5.7,2,7.4c1.3,1.7,3.2,2.5,5.6,2.5C103.2,410.8,105.1,409.9,106.4,408.2z"/>
		<path class="st2" d="M152.4,386c0.7,0.7,1.1,1.7,1.1,2.9v24.4c0,1.1-0.3,2-1,2.7s-1.5,1-2.6,1c-1,0-1.9-0.3-2.6-1
			c-0.7-0.7-1-1.6-1-2.7v-13.2l-5.1,9.4c-0.5,1-1,1.6-1.6,2s-1.2,0.6-2,0.6s-1.5-0.2-2-0.6c-0.6-0.4-1.1-1.1-1.6-2l-5.1-9.2v12.9
			c0,1.1-0.3,2-1,2.7s-1.5,1-2.6,1c-1,0-1.9-0.3-2.6-1s-1-1.6-1-2.7v-24.4c0-1.2,0.4-2.2,1.1-2.9c0.7-0.7,1.7-1.1,2.8-1.1
			c0.8,0,1.5,0.2,2.2,0.7c0.7,0.5,1.2,1.1,1.7,2l8.3,15.5l8.2-15.5c0.9-1.8,2.2-2.7,3.8-2.7C150.7,384.9,151.6,385.2,152.4,386z"/>
		<path class="st2" d="M160.4,415.9c-0.7-0.7-1.1-1.7-1.1-3v-24c0-1.2,0.4-2.2,1.1-2.9c0.7-0.7,1.7-1.1,3-1.1s2.3,0.4,3,1.1
			s1.1,1.7,1.1,2.9v24c0,1.3-0.4,2.2-1.1,3c-0.7,0.7-1.8,1.1-3,1.1C162.1,417,161.1,416.6,160.4,415.9z"/>
		<path class="st2" d="M200.4,386c0.7,0.7,1.1,1.7,1.1,2.9v24c0,1.2-0.4,2.2-1.1,3c-0.7,0.7-1.6,1.1-2.8,1.1c-1.3,0-2.4-0.4-3.1-1.3
			l-13.6-17V413c0,1.2-0.3,2.2-1,3c-0.7,0.7-1.6,1.1-2.8,1.1c-1.1,0-2.1-0.4-2.8-1.1s-1.1-1.7-1.1-3v-24c0-1.2,0.4-2.2,1.1-2.9
			c0.7-0.7,1.6-1.1,2.8-1.1c1.3,0,2.3,0.4,3,1.3l13.6,17V389c0-1.2,0.4-2.2,1.1-2.9c0.7-0.7,1.6-1.1,2.8-1.1
			C198.7,384.9,199.6,385.2,200.4,386z"/>
		<path class="st2" d="M234.3,399.7c0.6,0.6,0.9,1.3,0.9,2.2v7.8c0,1.5-0.1,2.6-0.3,3.4s-0.6,1.4-1.2,1.9c-0.6,0.4-1.5,0.8-2.6,1.2
			c-1.2,0.3-2.5,0.5-3.9,0.7s-2.7,0.2-4,0.2c-3.4,0-6.4-0.7-8.9-2s-4.5-3.2-5.8-5.6s-2-5.3-2-8.7c0-3.3,0.7-6.2,2-8.6
			s3.3-4.3,5.7-5.6c2.5-1.3,5.4-2,8.7-2c2.1,0,4,0.2,5.6,0.7c1.7,0.5,3.2,1.2,4.6,2.3c0.5,0.4,0.9,0.7,1.1,1.2
			c0.2,0.4,0.3,1,0.3,1.6c0,0.9-0.3,1.7-0.8,2.4c-0.5,0.6-1.1,1-1.8,1c-0.5,0-0.9-0.1-1.2-0.2s-0.8-0.4-1.3-0.7
			c-1.1-0.6-2.1-1-3.1-1.3s-2-0.4-3.2-0.4c-2.8,0-5,0.8-6.3,2.4c-1.4,1.6-2.1,4-2.1,7.3c0,3.4,0.7,5.9,2.2,7.5
			c1.4,1.6,3.7,2.4,6.7,2.4c1.4,0,2.9-0.1,4.3-0.4v-5.9h-3.2c-1,0-1.8-0.2-2.3-0.7s-0.8-1.2-0.8-2.1s0.3-1.6,0.8-2.1
			s1.3-0.7,2.3-0.7h7.4C233,398.8,233.7,399.1,234.3,399.7z"/>
		<path class="st2" d="M258.6,416.3c-2-0.5-3.7-1.2-5-2.2c-0.5-0.4-0.9-0.8-1.1-1.2s-0.3-1-0.3-1.6c0-0.9,0.3-1.7,0.8-2.3
			c0.5-0.7,1.2-1,1.9-1c0.4,0,0.8,0.1,1.1,0.2c0.4,0.1,0.8,0.3,1.3,0.7c1.2,0.7,2.4,1.2,3.7,1.5s2.6,0.4,4.1,0.4
			c1.8,0,3.1-0.3,4-0.8s1.4-1.3,1.4-2.3c0-0.7-0.4-1.3-1.3-1.8s-2.5-1-4.9-1.5c-3-0.6-5.3-1.4-7-2.2s-2.8-1.9-3.5-3.1s-1-2.6-1-4.3
			c0-1.9,0.6-3.6,1.7-5.2c1.1-1.6,2.7-2.8,4.7-3.7c2-0.9,4.2-1.3,6.7-1.3c2.2,0,4.1,0.2,5.8,0.7s3.3,1.2,4.7,2.2
			c0.5,0.4,0.9,0.8,1.1,1.2c0.2,0.4,0.3,1,0.3,1.6c0,0.9-0.3,1.7-0.8,2.3c-0.5,0.7-1.1,1-1.9,1c-0.4,0-0.7-0.1-1.1-0.2
			c-0.3-0.1-0.8-0.3-1.4-0.7c-0.1-0.1-0.6-0.3-1.3-0.7c-0.7-0.4-1.5-0.7-2.5-0.9c-0.9-0.2-2-0.3-3.1-0.3c-1.5,0-2.8,0.3-3.7,0.9
			c-0.9,0.6-1.4,1.4-1.4,2.3c0,0.6,0.2,1,0.5,1.4s0.9,0.7,1.8,1.1c0.9,0.3,2.2,0.7,4,1.1c2.9,0.6,5.1,1.4,6.8,2.3
			c1.6,0.9,2.8,1.9,3.5,3.1s1,2.5,1,4.1c0,2-0.6,3.7-1.7,5.2s-2.7,2.7-4.6,3.5c-2,0.8-4.3,1.2-6.9,1.2
			C262.9,417.1,260.7,416.8,258.6,416.3z"/>
		<path class="st2" d="M289.8,415.1c-2.4-1.3-4.2-3.2-5.5-5.7c-1.3-2.4-1.9-5.3-1.9-8.6s0.6-6.2,1.9-8.6s3.1-4.3,5.5-5.6
			c2.4-1.3,5.2-2,8.4-2s6,0.7,8.4,2s4.2,3.2,5.5,5.6s1.9,5.3,1.9,8.6s-0.6,6.2-1.9,8.6s-3.1,4.3-5.5,5.7c-2.4,1.3-5.2,2-8.4,2
			S292.2,416.4,289.8,415.1z M303.8,408.2c1.3-1.7,2-4.1,2-7.4s-0.7-5.7-2-7.4c-1.4-1.7-3.2-2.5-5.6-2.5s-4.3,0.8-5.6,2.5
			c-1.3,1.7-2,4.1-2,7.4s0.7,5.7,2,7.4c1.3,1.7,3.2,2.5,5.6,2.5S302.5,409.9,303.8,408.2z"/>
		<path class="st2" d="M325.5,415.1c-2.4-1.3-4.2-3.2-5.5-5.7c-1.3-2.4-1.9-5.3-1.9-8.6s0.6-6.2,1.9-8.6s3.1-4.3,5.5-5.6
			c2.4-1.3,5.2-2,8.4-2s6,0.7,8.4,2s4.2,3.2,5.5,5.6s1.9,5.3,1.9,8.6s-0.6,6.2-1.9,8.6s-3.1,4.3-5.5,5.7c-2.4,1.3-5.2,2-8.4,2
			S327.9,416.4,325.5,415.1z M339.5,408.2c1.3-1.7,2-4.1,2-7.4s-0.7-5.7-2-7.4c-1.4-1.7-3.2-2.5-5.6-2.5s-4.3,0.8-5.6,2.5
			c-1.3,1.7-2,4.1-2,7.4s0.7,5.7,2,7.4c1.3,1.7,3.2,2.5,5.6,2.5S338.2,409.9,339.5,408.2z"/>
		<path class="st2" d="M381.7,386c0.7,0.7,1.1,1.7,1.1,2.9v24c0,1.2-0.4,2.2-1.1,3c-0.7,0.7-1.6,1.1-2.8,1.1c-1.3,0-2.4-0.4-3.1-1.3
			l-13.6-17V413c0,1.2-0.3,2.2-1,3c-0.7,0.7-1.6,1.1-2.8,1.1c-1.1,0-2.1-0.4-2.8-1.1c-0.7-0.7-1.1-1.7-1.1-3v-24
			c0-1.2,0.4-2.2,1.1-2.9c0.7-0.7,1.6-1.1,2.8-1.1c1.3,0,2.3,0.4,3,1.3l13.6,17V389c0-1.2,0.4-2.2,1.1-2.9c0.7-0.7,1.6-1.1,2.8-1.1
			C380.1,384.9,381,385.2,381.7,386z"/>
	</g>
</g>
</svg>
