<?xml version="1.0" encoding="utf-8"?>
<!-- Generator: Adobe Illustrator 25.4.0, SVG Export Plug-In . SVG Version: 6.00 Build 0)  -->
<svg version="1.1" id="Layer_1" xmlns="http://www.w3.org/2000/svg" xmlns:xlink="http://www.w3.org/1999/xlink" x="0px" y="0px"
	 viewBox="0 0 512 467.2" style="enable-background:new 0 0 512 467.2;" xml:space="preserve">
<style type="text/css">
	.st0{fill:#FF4757;}
	.st1{fill:url(#SVGID_1_);}
	.st2{fill:url(#SVGID_00000158012516566827207610000011061397266750482850_);}
	.st3{fill:url(#SVGID_00000000223608814719499480000017559970871762229923_);}
	.st4{fill:url(#SVGID_00000116195605446390888610000005405377327203556018_);}
	.st5{fill:url(#SVGID_00000070840727515874793250000009281931381932157630_);}
	.st6{fill:url(#SVGID_00000115506274869668903370000014306000061188498606_);}
	.st7{fill:url(#SVGID_00000102516090165522604750000006290659343642474144_);}
	.st8{fill:url(#SVGID_00000157270636247740064780000017445972264914263742_);}
	.st9{fill:#FF7A85;}
	.st10{fill:url(#SVGID_00000139994026983018556410000012977655179040221886_);}
	.st11{fill:url(#SVGID_00000158723029374209592980000015261422989523696011_);}
	.st12{fill:url(#SVGID_00000083086457773831466080000004692477256873853313_);}
</style>
<g>
	<g>
		<path class="st0" d="M341.8,266.4l-55.6,6l-43.1,188.1c-1.2,5.4,5.4,9,9.3,5l21.9-22.8l12.9,20.2c2.6,4.1,8.9,3,10-1.7
			L341.8,266.4z M341.8,266.4l55.6-58.2L442.4,353c1.3,4.1-1.5,8.3-5.7,8.7l-27.5,3l-13.1,35.5c-2.2,6.1-10.9,5.8-12.8-0.3
			L341.8,266.4z"/>
	</g>
	
		<linearGradient id="SVGID_1_" gradientUnits="userSpaceOnUse" x1="308.6841" y1="234.1973" x2="248.2532" y2="338.8673" gradientTransform="matrix(1 0 0 -1 0 469.1824)">
		<stop  offset="0" style="stop-color:#DEA861"/>
		<stop  offset="0.548" style="stop-color:#EBCBA0"/>
		<stop  offset="1" style="stop-color:#FCF3B3"/>
	</linearGradient>
	<path class="st1" d="M449.5,5.7c-17.2-8-31.7-7.1-42.5-0.4l0,0L18.8,232.9l86.6,154.3L491.6,161l0,0c11-6.3,18.9-17.6,20-32.2
		C515.6,78,485,22.2,449.5,5.7z"/>
	
		<linearGradient id="SVGID_00000136413407177250473200000009882571882441937803_" gradientUnits="userSpaceOnUse" x1="308.3341" y1="234.7943" x2="248.6651" y2="338.1443" gradientTransform="matrix(1 0 0 -1 0 469.1824)">
		<stop  offset="0" style="stop-color:#AB2C37"/>
		<stop  offset="0.617" style="stop-color:#FF4F5E"/>
		<stop  offset="1" style="stop-color:#FF7A85"/>
	</linearGradient>
	<path style="fill:url(#SVGID_00000136413407177250473200000009882571882441937803_);" d="M295.6,96.3c-16.2-9.3-30.3-8-42.5-0.8
		l-60.8,35.6c9.5-3.5,21.3-2.1,33.9,5.1c32.1,18.5,58.1,68.2,58.1,110.9c0,24.8-8.1,38.9-22.3,48.1l69.5-39.9
		c13.6-6.3,22.3-23.4,22.3-48.1C353.7,164.5,327.7,114.8,295.6,96.3L295.6,96.3z"/>
	
		<linearGradient id="SVGID_00000107579126351541523290000014777776965712104839_" gradientUnits="userSpaceOnUse" x1="40.6925" y1="202.1379" x2="88.3085" y2="119.6639" gradientTransform="matrix(1 0 0 -1 0 469.1824)">
		<stop  offset="0" style="stop-color:#DEA861"/>
		<stop  offset="1" style="stop-color:#EBCBA0"/>
	</linearGradient>
	<path style="fill:url(#SVGID_00000107579126351541523290000014777776965712104839_);" d="M62.7,244.1
		c-29.2-15.4-51.2,0.6-50.9,38.9l14-8.1c0,0-12.1,61.8,38,107.9c20.2,18.5,51.2-0.6,50.9-38.9C114.3,305.6,98,262.7,62.7,244.1
		L62.7,244.1z"/>
	
		<linearGradient id="SVGID_00000065757541751764751390000011245923093306095270_" gradientUnits="userSpaceOnUse" x1="108.0636" y1="127.2205" x2="64.4556" y2="216.5465" gradientTransform="matrix(1 0 0 -1 0 469.1824)">
		<stop  offset="0" style="stop-color:#DEA861"/>
		<stop  offset="0.225" style="stop-color:#DFAC67"/>
		<stop  offset="0.538" style="stop-color:#E3B679"/>
		<stop  offset="0.9" style="stop-color:#E9C697"/>
		<stop  offset="1" style="stop-color:#EBCBA0"/>
	</linearGradient>
	<path style="fill:url(#SVGID_00000065757541751764751390000011245923093306095270_);" d="M38.7,259.6l32.8-18.9
		c0,0,36.1,27.4,48.8,70.2l3.1,33.9L91.8,363c0,0,19.5-61.2-25.1-93.7C51.3,258.1,38.7,259.6,38.7,259.6L38.7,259.6z"/>
	
		<linearGradient id="SVGID_00000182519858638281595010000009618216175641859215_" gradientUnits="userSpaceOnUse" x1="68.9197" y1="159.796" x2="88.6957" y2="119.878" gradientTransform="matrix(1 0 0 -1 0 469.1824)">
		<stop  offset="0" style="stop-color:#DEA861"/>
		<stop  offset="0.33" style="stop-color:#E2B272"/>
		<stop  offset="0.982" style="stop-color:#EBCA9F"/>
		<stop  offset="1" style="stop-color:#EBCBA0"/>
	</linearGradient>
	<path style="fill:url(#SVGID_00000182519858638281595010000009618216175641859215_);" d="M49.1,313.7l32.6-18.8
		c0,0,15.1,16.3,14.9,38.2s-11,27-20.7,22.8C66.2,351.7,49.1,313.7,49.1,313.7z"/>
	
		<linearGradient id="SVGID_00000106830408815320099210000004069134595666335629_" gradientUnits="userSpaceOnUse" x1="63.2306" y1="43.9022" x2="63.2306" y2="287.7872" gradientTransform="matrix(1 0 0 -1 0 469.1824)">
		<stop  offset="0" style="stop-color:#CC8241"/>
		<stop  offset="1" style="stop-color:#DEA861"/>
	</linearGradient>
	<path style="fill:url(#SVGID_00000106830408815320099210000004069134595666335629_);" d="M63.9,231.5
		c-35.3-16.4-59.4,4.6-63.7,36.6c-0.6,4.4-0.1,12.5,5.4,15.6c3.3,1.9,7.4-0.3,7.8-4c3.1-31.7,22-50.7,51.5-31.9
		c25.7,16.3,50.1,54.3,50.1,99.1c0,32.8-31.3,38.6-48,27.8c-38.8-25-33.9-74-33.9-74c0.9-27.8,15.6-30.4,30.8-21.6
		c15.9,9.2,28.7,33.8,28.7,54.9c0,0,2.5,26.6-17.6,16.6C61.8,344,58.7,329.9,58,322.1c-0.3-3.5-2.3-6.7-5.4-8.4
		c-2.4-1.4-5.4,0.5-5.2,3.2c0.7,10.2,4.4,30.3,22,41.6c30.6,19.7,35.7-17.5,35.7-17.5c2.5-32.1-18.4-65.4-41.1-78.5
		c-20-11.6-36.7-2.1-40.3,21l0,0c0,0-12.6,63.1,34,98.6c28.8,21.9,66,5.3,68.5-27.6C130.1,303.8,99.5,248,63.9,231.5L63.9,231.5z"/>
	
		<linearGradient id="SVGID_00000011742443099767239130000015617276356747587486_" gradientUnits="userSpaceOnUse" x1="367.472" y1="281.0602" x2="545.952" y2="281.0602" gradientTransform="matrix(1 0 0 -1 0 469.1824)">
		<stop  offset="0" style="stop-color:#AB2C37"/>
		<stop  offset="0.119" style="stop-color:#B02E39"/>
		<stop  offset="0.267" style="stop-color:#C03541"/>
		<stop  offset="0.431" style="stop-color:#D93F4C"/>
		<stop  offset="0.604" style="stop-color:#FC4E5D"/>
		<stop  offset="0.617" style="stop-color:#FF4F5E"/>
		<stop  offset="0.727" style="stop-color:#FF5563"/>
		<stop  offset="0.867" style="stop-color:#FF6471"/>
		<stop  offset="1" style="stop-color:#FF7A85"/>
	</linearGradient>
	<path style="fill:url(#SVGID_00000011742443099767239130000015617276356747587486_);" d="M480.2,138.7l-5.1-7.8
		c0,0-8.7-10.6-26-11.2s-81.7,43.8-81.7,43.8l8.6,93.1l86.9-15.1c11.5-2,17.7-12,17.2-21.8l0-0.2L480.2,138.7L480.2,138.7z"/>
	
		<linearGradient id="SVGID_00000160900606799167323190000001771100822420725145_" gradientUnits="userSpaceOnUse" x1="-422.0927" y1="615.701" x2="-421.0927" y2="615.701" gradientTransform="matrix(109.026 0 0 -53.1331 46386.5469 32860.2227)">
		<stop  offset="0" style="stop-color:#9E212C"/>
		<stop  offset="0.978" style="stop-color:#D32C3A"/>
	</linearGradient>
	<path style="fill:url(#SVGID_00000160900606799167323190000001771100822420725145_);" d="M372.5,172.7l-5.1-9.2
		c0,0,65.1-46.2,83.7-43.8s25.3,10.8,25.3,18.3s-7,17.7-13.9,20.7C455.6,161.7,372.5,172.7,372.5,172.7L372.5,172.7z"/>
	<path class="st9" d="M449.2,116.4v6.8h0c6.1,0,12,1.6,17.3,4.6c6.2,3.6,7.6,9.9,6.8,14.5s-4.2,10.1-11.3,11.3l-84.5,14.7l-4.9-2.9
		l58-36.9c5.6-3.5,12-5.4,18.6-5.4V116.4z M449.2,116.4c-7.9,0-15.6,2.2-22.2,6.5l-67.4,42.8l16.6,9.8l86.9-15.1
		c19.1-3.3,23.6-28.7,6.8-38.4C463.6,118.4,456.4,116.4,449.2,116.4z"/>
	
		<linearGradient id="SVGID_00000137854543784884556280000009655042566314697634_" gradientUnits="userSpaceOnUse" x1="-421.2014" y1="617.0483" x2="-420.2014" y2="617.0483" gradientTransform="matrix(88.777 0 0 -121.775 37685.5195 75374.6719)">
		<stop  offset="0" style="stop-color:#AB2C37"/>
		<stop  offset="0.119" style="stop-color:#B02E39"/>
		<stop  offset="0.267" style="stop-color:#C03541"/>
		<stop  offset="0.431" style="stop-color:#D93F4C"/>
		<stop  offset="0.604" style="stop-color:#FC4E5D"/>
		<stop  offset="0.617" style="stop-color:#FF4F5E"/>
		<stop  offset="1" style="stop-color:#FF7A85"/>
	</linearGradient>
	<path style="fill:url(#SVGID_00000137854543784884556280000009655042566314697634_);" d="M292.5,204.6v79.1l18.6,10.7
		c12.5,0,24.8-3.3,35.7-9.6l22.9-13.2c7.2-4.1,11.6-11.8,11.6-20.1v-78.9L292.5,204.6z"/>
	
		<linearGradient id="SVGID_00000001646955033021624380000008435311467473349258_" gradientUnits="userSpaceOnUse" x1="-422.8777" y1="617.3439" x2="-421.8777" y2="617.3439" gradientTransform="matrix(136.4371 0 0 -169.941 57878.1953 105201.7578)">
		<stop  offset="0" style="stop-color:#AB2C37"/>
		<stop  offset="0.119" style="stop-color:#B02E39"/>
		<stop  offset="0.267" style="stop-color:#C03541"/>
		<stop  offset="0.431" style="stop-color:#D93F4C"/>
		<stop  offset="0.604" style="stop-color:#FC4E5D"/>
		<stop  offset="0.617" style="stop-color:#FF4F5E"/>
		<stop  offset="1" style="stop-color:#FF7A85"/>
	</linearGradient>
	<path style="fill:url(#SVGID_00000001646955033021624380000008435311467473349258_);" d="M318.4,288.3L318.4,288.3l0-75l-19.8-8.6
		c0,0-65.9,28.5-85.9,38.1c-20,9.5-30.7,26.7-30.7,26.7v75.8c-0.5,7.9,4.7,15.1,15.2,21.4c9.8,5.8,18.6,8,26.4,8
		c16.2,0,28.2-9.4,35.8-15.3c1-0.8,2.1-1.6,3.1-2.4c10.5-7.7,53.3-63.7,55.1-66.1C318.3,290.2,318.5,289.2,318.4,288.3z"/>
	
		<linearGradient id="SVGID_00000060722972573663581740000008291060282994092474_" gradientUnits="userSpaceOnUse" x1="-422.6855" y1="616.6804" x2="-421.6855" y2="616.6804" gradientTransform="matrix(128.5264 0 0 -90.0196 54512.2891 55763.0625)">
		<stop  offset="0" style="stop-color:#9E212C"/>
		<stop  offset="0.978" style="stop-color:#D32C3A"/>
	</linearGradient>
	<path style="fill:url(#SVGID_00000060722972573663581740000008291060282994092474_);" d="M186.7,262.3c0,0-4.8,12.8,11.7,24.2
		c16.5,11.4,33.5,11.1,53.5-1.8s62.6-71.1,62.6-71.1l-16-8.8c0,0-82.3,37.9-92.2,40.9C196.4,248.7,188.7,258.8,186.7,262.3z"/>
	<path class="st9" d="M223.7,298.9c-7.8,0-16.6-2.2-26.4-8c-10.6-6.2-15.7-13.4-15.2-21.4c0.8-13.1,17.3-23.8,26.9-28.1
		c12.1-5.4,88.9-39.7,89.7-40.1c1-0.4,2.1-0.4,3.1,0.2l15,8.7c0.8,0.5,1.4,1.3,1.6,2.3c0.2,1,0,2-0.6,2.7
		c-1.8,2.4-44.7,58.4-55.1,66.1c-0.9,0.7-2,1.5-3.1,2.4C251.9,289.5,239.9,298.9,223.7,298.9L223.7,298.9z M299.8,208.2
		c-11.1,5-77,34.4-88.1,39.4c-8.9,4-22.3,13.2-22.9,22.3c-0.3,5.2,3.7,10.3,11.9,15.1c26.1,15.4,43.9,1.5,54.6-6.8
		c1.2-0.9,2.3-1.8,3.3-2.5c7.6-5.5,37.7-43.8,51.4-61.6L299.8,208.2z"/>
	<path class="st9" d="M311.1,215.6c12.5,0,24.8-3.3,35.7-9.6l22.9-13.2c7.2-4.1,11.6-11.8,11.6-20.1l-16.6-9.8l-72.2,41.7
		L311.1,215.6z"/>
</g>
</svg>
