<?xml version="1.0" encoding="utf-8"?>
<!-- Generator: Adobe Illustrator 25.4.0, SVG Export Plug-In . SVG Version: 6.00 Build 0)  -->
<svg version="1.1" id="Layer_1" xmlns="http://www.w3.org/2000/svg" xmlns:xlink="http://www.w3.org/1999/xlink" x="0px" y="0px"
	 viewBox="0 0 512 256.2" style="enable-background:new 0 0 512 256.2;" xml:space="preserve">
<style type="text/css">
	.st0{fill:url(#SVGID_1_);}
	.st1{fill:url(#SVGID_00000064331048482155790330000013245110809483688594_);}
	.st2{fill:url(#SVGID_00000093866836216259369340000016291152580950289583_);}
	.st3{fill:url(#SVGID_00000086666464752276837380000001636935348349677210_);}
	.st4{fill:url(#SVGID_00000091730144616206732170000015148554652355596963_);}
	.st5{fill:url(#SVGID_00000162313903311644910230000003552904648530622909_);}
	.st6{fill:url(#SVGID_00000096048959401883994540000001241295730990594188_);}
	.st7{fill:url(#SVGID_00000050641969509879645940000007810380664630517907_);}
	.st8{fill:url(#SVGID_00000001626391399835224740000000394501363906896023_);}
	.st9{fill:url(#SVGID_00000003087573121842505450000003053941420943182265_);}
	.st10{fill:url(#SVGID_00000026144069614238106350000000113520760715913657_);}
	.st11{fill:url(#SVGID_00000037680359460360722350000008917434493176038551_);}
	.st12{fill:url(#SVGID_00000055676397713046222100000006371228961561408436_);}
	.st13{fill:url(#SVGID_00000163786860610730278880000009102613216299187595_);}
	.st14{fill:url(#SVGID_00000181786152131654544400000009117724708170501520_);}
	.st15{fill:url(#SVGID_00000006702525484531068300000006874971627910680989_);}
	.st16{fill:url(#SVGID_00000175321781988129276370000007978891729389162941_);}
</style>
<g>
	
		<linearGradient id="SVGID_1_" gradientUnits="userSpaceOnUse" x1="206.685" y1="369.6807" x2="287.638" y2="369.6807" gradientTransform="matrix(1 0 0 -1 0 512.5031)">
		<stop  offset="0" style="stop-color:#575C55"/>
		<stop  offset="1" style="stop-color:#45425A"/>
	</linearGradient>
	<path class="st0" d="M425.9,149.1V167c0,11.7-7.7,22.1-19,25.5l-139.1,41.9c-7.7,2.3-15.9,2.3-23.6,0l-139.1-41.9
		c-11.3-3.4-19-13.8-19-25.5v-17.9c0-34.2,5.3-67.7,15.3-99.7l141.4,24.1c8.7,1.5,17.6,1.5,26.3,0l141.4-24.1
		C420.7,81.7,425.9,115.3,425.9,149.1L425.9,149.1z"/>
	
		<linearGradient id="SVGID_00000057118056640402900780000015970175718290695835_" gradientUnits="userSpaceOnUse" x1="334.8662" y1="224.4509" x2="179.0092" y2="493.3229" gradientTransform="matrix(1.0039 -1.200000e-03 -1.200000e-03 -1.0039 7.8179 446.3337)">
		<stop  offset="0" style="stop-color:#45425A;stop-opacity:0"/>
		<stop  offset="0.347" style="stop-color:#353343;stop-opacity:0.349"/>
		<stop  offset="1" style="stop-color:#1A1A1A"/>
	</linearGradient>
	<path style="fill:url(#SVGID_00000057118056640402900780000015970175718290695835_);" d="M269.1,73.5c-8.7,1.5-17.6,1.5-26.3,0
		L101.4,49.7c-2.8,9-5.3,18.2-7.3,27.4l159.4,159c4.9,0.3,9.8-0.2,14.5-1.7L407,192.3c11.2-3.4,18.9-13.8,18.9-25.5l0-17.9
		c0-33.8-5.3-67.4-15.5-99.6L269.1,73.5z"/>
	
		<linearGradient id="SVGID_00000112598090819265770020000012889772892381186182_" gradientUnits="userSpaceOnUse" x1="125.7117" y1="591.2843" x2="386.2884" y2="330.7076" gradientTransform="matrix(1 0 0 -1 0 512.5031)">
		<stop  offset="0" style="stop-color:#575C55"/>
		<stop  offset="1" style="stop-color:#45425A"/>
	</linearGradient>
	<path style="fill:url(#SVGID_00000112598090819265770020000012889772892381186182_);" d="M242.8,1.1L8.9,40.9C-3,43-3,60,8.9,62.1
		l233.9,39.8c8.7,1.5,17.6,1.5,26.3,0l233.9-39.8c11.9-2,11.9-19.1,0-21.1L269.2,1.1C260.5-0.4,251.5-0.4,242.8,1.1L242.8,1.1z"/>
	
		<linearGradient id="SVGID_00000043446544517929210780000011282311890363914629_" gradientUnits="userSpaceOnUse" x1="234.2009" y1="562.2188" x2="277.9539" y2="359.0278" gradientTransform="matrix(1 0 0 -1 0 512.5031)">
		<stop  offset="0" style="stop-color:#45425A;stop-opacity:0"/>
		<stop  offset="0.347" style="stop-color:#353343;stop-opacity:0.349"/>
		<stop  offset="1" style="stop-color:#1A1A1A"/>
	</linearGradient>
	<path style="fill:url(#SVGID_00000043446544517929210780000011282311890363914629_);" d="M508.1,43.2c-1.3,1.1-3,1.9-5.1,2.2
		L269.2,85.2c-8.7,1.5-17.6,1.5-26.3,0L8.9,45.4c-2-0.3-3.7-1.1-5.1-2.2c-6.5,5.2-4.8,17.2,5.1,18.9l233.9,39.8
		c8.7,1.5,17.6,1.5,26.3,0l233.9-39.8C512.9,60.4,514.6,48.4,508.1,43.2L508.1,43.2z"/>
	
		<linearGradient id="SVGID_00000170961966740145384470000017011607517491401917_" gradientUnits="userSpaceOnUse" x1="228.191" y1="333.2419" x2="306.228" y2="333.2419" gradientTransform="matrix(1 0 0 -1 0 512.5031)">
		<stop  offset="0" style="stop-color:#FFE548"/>
		<stop  offset="1" style="stop-color:#FFB211"/>
	</linearGradient>
	<path style="fill:url(#SVGID_00000170961966740145384470000017011607517491401917_);" d="M268.6,195.2c-8.2,2.5-16.9,2.5-25.1,0
		L95.2,150.5c-3.3-1-6.3-2.6-9-4.6c0,1.1,0,2.2,0,3.2v12.3c2.7,2.1,5.8,3.7,9.1,4.7l148.2,44.7c8.2,2.5,16.9,2.5,25.1,0l148.2-44.7
		c3.3-1,6.4-2.6,9.1-4.7v-12.3c0-1.1,0-2.2,0-3.2c-2.7,2.1-5.8,3.7-9,4.6L268.6,195.2z"/>
	
		<linearGradient id="SVGID_00000060744889229332982500000000633291901952612742_" gradientUnits="userSpaceOnUse" x1="328.4597" y1="255.0069" x2="288.4147" y2="489.1579" gradientTransform="matrix(1 0 0 -1 0 512.5031)">
		<stop  offset="0" style="stop-color:#FFB211;stop-opacity:0"/>
		<stop  offset="0.228" style="stop-color:#FF9F19;stop-opacity:0.227"/>
		<stop  offset="0.686" style="stop-color:#FF6F2E;stop-opacity:0.686"/>
		<stop  offset="1" style="stop-color:#FF4B3E"/>
	</linearGradient>
	<path style="fill:url(#SVGID_00000060744889229332982500000000633291901952612742_);" d="M268.6,210.8l148.2-44.7
		c3.3-1,6.4-2.6,9.1-4.7v-12.3c0-1.1,0-2.2,0-3.2c-2.7,2-5.7,3.6-9,4.7l-148.2,44.7c-8.2,2.5-16.9,2.5-25.1,0L199,181.8l22.4,22.3
		l22,6.6C251.6,213.2,260.4,213.2,268.6,210.8L268.6,210.8z"/>
	
		<linearGradient id="SVGID_00000080168021377878614990000003470119899181536152_" gradientUnits="userSpaceOnUse" x1="353.7982" y1="445.7198" x2="356.3622" y2="481.4248" gradientTransform="matrix(1 0 0 -1 0 512.5031)">
		<stop  offset="0" style="stop-color:#45425A;stop-opacity:0"/>
		<stop  offset="0.347" style="stop-color:#353343;stop-opacity:0.349"/>
		<stop  offset="1" style="stop-color:#1A1A1A"/>
	</linearGradient>
	<path style="fill:url(#SVGID_00000080168021377878614990000003470119899181536152_);" d="M442.2,45.1L256.3,33.8
		c-2.5-0.1-4.6,1.7-4.7,4.2v64.9c5.9,0.3,11.8,0,17.6-1l188.7-32.1V62C457.9,53.2,451,45.7,442.2,45.1L442.2,45.1z"/>
	
		<linearGradient id="SVGID_00000107573006516998672010000004049922925976338855_" gradientUnits="userSpaceOnUse" x1="286.5853" y1="441.8011" x2="232.6593" y2="495.7261" gradientTransform="matrix(1 0 0 -1 0 512.5031)">
		<stop  offset="0" style="stop-color:#45425A;stop-opacity:0"/>
		<stop  offset="0.347" style="stop-color:#353343;stop-opacity:0.349"/>
		<stop  offset="1" style="stop-color:#1A1A1A"/>
	</linearGradient>
	<path style="fill:url(#SVGID_00000107573006516998672010000004049922925976338855_);" d="M276.3,37.9c-2.9-3.3-10.9-5.7-20.3-5.7
		c-11.9,0-21.5,3.8-21.5,8.5c0,0.4,34.4,34.8,34.7,35c2,4.4,42.9,4.3,42.9-0.3c0-1.2-0.7-2.4-1.9-3.5L276.3,37.9z"/>
	
		<linearGradient id="SVGID_00000131369273985358316060000001604961866109202574_" gradientUnits="userSpaceOnUse" x1="486.7965" y1="332.8791" x2="297.5717" y2="522.1039" gradientTransform="matrix(1 0 0 -1 0 512.5031)">
		<stop  offset="0" style="stop-color:#FFE548"/>
		<stop  offset="1" style="stop-color:#FFB211"/>
	</linearGradient>
	<path style="fill:url(#SVGID_00000131369273985358316060000001604961866109202574_);" d="M453.4,211.1c-2.5,0-4.4-2-4.4-4.4V62
		c0-4.2-3.3-7.7-7.4-8L255.7,42.7c-2.5-0.1-4.3-2.3-4.2-4.7c0.1-2.5,2.3-4.3,4.7-4.2l185.9,11.2c8.8,0.7,15.7,8.1,15.7,16.9v144.7
		C457.9,209.1,455.9,211.1,453.4,211.1L453.4,211.1z"/>
	
		<linearGradient id="SVGID_00000051377477340254958440000011543270340789424306_" gradientUnits="userSpaceOnUse" x1="444.822" y1="279.8178" x2="477.157" y2="279.8178" gradientTransform="matrix(1 0 0 -1 0 512.5031)">
		<stop  offset="0" style="stop-color:#FFE548"/>
		<stop  offset="1" style="stop-color:#FFB211"/>
	</linearGradient>
	<path style="fill:url(#SVGID_00000051377477340254958440000011543270340789424306_);" d="M467.9,228.1c0,8.1-6.6,28.1-14.7,28.1
		c-8.1,0-14.7-19.9-14.7-28.1c0-8.1,6.6-18.9,14.7-18.9C461.3,209.2,467.9,220,467.9,228.1z"/>
	
		<linearGradient id="SVGID_00000150093040870324506320000007709169651874826885_" gradientUnits="userSpaceOnUse" x1="450.911" y1="281.6345" x2="430.0541" y2="296.3725" gradientTransform="matrix(1 0 0 -1 0 512.5031)">
		<stop  offset="0" style="stop-color:#FFB211;stop-opacity:0"/>
		<stop  offset="0.228" style="stop-color:#FF9F19;stop-opacity:0.227"/>
		<stop  offset="0.686" style="stop-color:#FF6F2E;stop-opacity:0.686"/>
		<stop  offset="1" style="stop-color:#FF4B3E"/>
	</linearGradient>
	<path style="fill:url(#SVGID_00000150093040870324506320000007709169651874826885_);" d="M462.9,228.1c0,8.1-4.4,28.1-9.7,28.1
		s-9.7-19.9-9.7-28.1c0-8.1,4.4-18.9,9.7-18.9S462.9,220,462.9,228.1z"/>
	
		<linearGradient id="SVGID_00000101783848763254870600000011252356827247292319_" gradientUnits="userSpaceOnUse" x1="455.2978" y1="279.4058" x2="469.7588" y2="276.4857" gradientTransform="matrix(1 0 0 -1 0 512.5031)">
		<stop  offset="0" style="stop-color:#FFB211;stop-opacity:0"/>
		<stop  offset="0.228" style="stop-color:#FF9F19;stop-opacity:0.227"/>
		<stop  offset="0.686" style="stop-color:#FF6F2E;stop-opacity:0.686"/>
		<stop  offset="1" style="stop-color:#FF4B3E"/>
	</linearGradient>
	<path style="fill:url(#SVGID_00000101783848763254870600000011252356827247292319_);" d="M462.9,228.1c0,8.1-4.4,28.1-9.7,28.1
		s-9.7-19.9-9.7-28.1c0-8.1,4.4-18.9,9.7-18.9S462.9,220,462.9,228.1z"/>
	
		<linearGradient id="SVGID_00000022538373207074877290000012715867268625832363_" gradientUnits="userSpaceOnUse" x1="453.7231" y1="280.0066" x2="425.636" y2="271.3856" gradientTransform="matrix(1 0 0 -1 0 512.5031)">
		<stop  offset="0" style="stop-color:#FFB211;stop-opacity:0"/>
		<stop  offset="0.228" style="stop-color:#FF9F19;stop-opacity:0.227"/>
		<stop  offset="0.686" style="stop-color:#FF6F2E;stop-opacity:0.686"/>
		<stop  offset="1" style="stop-color:#FF4B3E"/>
	</linearGradient>
	<path style="fill:url(#SVGID_00000022538373207074877290000012715867268625832363_);" d="M459.3,228.1c0,8.1-2.7,28.1-6.1,28.1
		s-6.1-19.9-6.1-28.1c0-8.1,2.7-18.9,6.1-18.9S459.3,220,459.3,228.1z"/>
	
		<linearGradient id="SVGID_00000176727711084243297620000009194170841497043128_" gradientUnits="userSpaceOnUse" x1="454.5862" y1="280.7456" x2="469.1702" y2="289.9776" gradientTransform="matrix(1 0 0 -1 0 512.5031)">
		<stop  offset="0" style="stop-color:#FFB211;stop-opacity:0"/>
		<stop  offset="0.228" style="stop-color:#FF9F19;stop-opacity:0.227"/>
		<stop  offset="0.686" style="stop-color:#FF6F2E;stop-opacity:0.686"/>
		<stop  offset="1" style="stop-color:#FF4B3E"/>
	</linearGradient>
	<path style="fill:url(#SVGID_00000176727711084243297620000009194170841497043128_);" d="M456.9,228.1c0,8.1-1.7,28.1-3.8,28.1
		s-3.8-19.9-3.8-28.1c0-8.1,1.7-18.9,3.8-18.9S456.9,220,456.9,228.1z"/>
	
		<linearGradient id="SVGID_00000049198018472757987020000017433873821265909633_" gradientUnits="userSpaceOnUse" x1="463.1957" y1="291.5175" x2="441.4137" y2="313.2995" gradientTransform="matrix(1 0 0 -1 0 512.5031)">
		<stop  offset="0" style="stop-color:#FFB211;stop-opacity:0"/>
		<stop  offset="0.228" style="stop-color:#FF9F19;stop-opacity:0.227"/>
		<stop  offset="0.686" style="stop-color:#FF6F2E;stop-opacity:0.686"/>
		<stop  offset="1" style="stop-color:#FF4B3E"/>
	</linearGradient>
	<path style="fill:url(#SVGID_00000049198018472757987020000017433873821265909633_);" d="M453.2,209.2c-2.1,0-4.1,0.7-6,2
		l20.4,20.4c0.2-1.3,0.3-2.5,0.3-3.5C467.9,220,461.3,209.2,453.2,209.2z"/>
	
		<linearGradient id="SVGID_00000067948899686162850020000000962398513297662596_" gradientUnits="userSpaceOnUse" x1="446.6536" y1="312.6564" x2="457.7116" y2="301.5994" gradientTransform="matrix(1 0 0 -1 0 512.5031)">
		<stop  offset="0" style="stop-color:#FFE548"/>
		<stop  offset="1" style="stop-color:#FFB211"/>
	</linearGradient>
	<path style="fill:url(#SVGID_00000067948899686162850020000000962398513297662596_);" d="M461.1,206.8c0,4.4-3.5,5.9-7.9,5.9
		s-7.9-1.6-7.9-5.9c0-4.4,3.5-7.9,7.9-7.9c0,0,0,0,0,0C457.5,198.8,461.1,202.4,461.1,206.8C461.1,206.8,461.1,206.8,461.1,206.8z"
		/>
	
		<linearGradient id="SVGID_00000176743561104612916870000006234425582941948347_" gradientUnits="userSpaceOnUse" x1="256" y1="480.2748" x2="256" y2="470.3808" gradientTransform="matrix(1 0 0 -1 0 512.5031)">
		<stop  offset="0" style="stop-color:#575C55"/>
		<stop  offset="1" style="stop-color:#45425A"/>
	</linearGradient>
	<path style="fill:url(#SVGID_00000176743561104612916870000006234425582941948347_);" d="M277.5,40.8c0,4.7-43,4.7-43,0
		c0-4.7,9.6-8.5,21.5-8.5C267.9,32.2,277.5,36,277.5,40.8z"/>
</g>
</svg>
