<svg xmlns="http://www.w3.org/2000/svg" version="1.1" xmlns:xlink="http://www.w3.org/1999/xlink" width="512" height="512" x="0" y="0" viewBox="0 0 512.898 512.898" style="enable-background:new 0 0 512 512" xml:space="preserve"><g><path fill="#f55745" d="m328.743 417.603-24.588-16.19-32.463 67.593V254.897l57.051 9.463z" opacity="1" data-original="#f55745"></path><path fill="#d94e3e" d="m328.743 417.603-24.588-16.19-32.463 67.593V254.897l57.051 9.463z" opacity="1" data-original="#d94e3e"></path><path fill="#e9f2ff" d="m27.231 387.315 31.338-25.637C177.995 263.98 286.868 154.275 383.451 34.312c15.954-15.809 52.782-4.946 82.258 24.264s40.439 65.706 24.485 81.515c-121.056 95.711-231.761 203.6-330.349 321.947l-31.962 38.65z" opacity="1" data-original="#e9f2ff"></path><path fill="#91a8dd" d="M97.742 328.824c15.101 14.965 76.725 115.623 76.725 115.623s-40.307 50.021-46.196 55.857c-11.983 11.875-49.055 2.616-78.748-26.81s-42-65-28.781-79.749c11.258-12.562 77-64.921 77-64.921z" opacity="1" data-original="#91a8dd"></path><path fill="#e9f2ff" d="M58.835 418.182c-4.813 4.813-8.563 18.063 29.187 50.824l42.5-40.511s-40.25-41.75-71.687-10.313z" opacity="1" data-original="#e9f2ff"></path><path fill="#b5ceff" d="M490.07 140.214c16.009-15.864 5.091-52.404-24.385-81.615-8.526-8.449-17.67-15.347-26.75-20.518L96.772 380.245l-37.937 37.937s16.312-16.312 47.839 18.607c28.162 31.192 23.858 55.964 21.209 63.9l30.705-37.403c98.965-118.722 210.05-226.988 331.482-323.072z" opacity="1" data-original="#b5ceff"></path><path fill="#a4c2ff" d="M465.685 58.6c-8.526-8.449-17.67-15.348-26.75-20.519l-21.897 21.897c28.444 28.973 38.791 64.619 23.032 80.236-117.514 92.983-225.336 197.375-321.862 311.61 15.219 23.955 11.882 42.254 9.675 48.864l30.705-37.404c98.966-118.721 210.05-226.987 331.483-323.071 16.008-15.863 5.091-52.403-24.386-81.613z" opacity="1" data-original="#a4c2ff"></path><path fill="#e9f2ff" d="M399.891 14.373C302.931 134.709 176.746 263.88 56.943 361.952l-36.202 31.795s35.125-39.751 96.299 4.271L480.971 37.373c-28.912-26.939-65.631-38.309-81.08-23z" opacity="1" data-original="#e9f2ff"></path><path fill="#f55745" d="M244.233 174.448a2657.63 2657.63 0 0 1-46.34 46.655c48.826 15.174 87.667 52.584 104.487 100.284a2658.527 2658.527 0 0 1 47.111-45.889c-16.77-48.166-55.966-85.928-105.258-101.05z" opacity="1" data-original="#f55745"></path><path d="M473.244 55.589 486.25 42.7c2.986-2.958 2.908-7.949-.167-10.814-14.988-13.966-32.248-24.285-48.6-29.056-13.329-3.888-33.502-5.499-43.433 6.838a2212.338 2212.338 0 0 1-33.822 40.935c-6.064 7.163 5.109 17.18 11.449 9.69a2223.1 2223.1 0 0 0 33.761-40.852c11.151-10.456 39.991-1.968 64.541 18.266L306.225 199.982a170.055 170.055 0 0 0-38.4-24.495c26.243-27.419 51.898-55.391 76.356-83.282 6.188-7.057-4.809-17.267-11.278-9.89-25.593 29.187-52.507 58.465-80.036 87.097-4.431-1.557-9.995-4.334-14.019-.184a2656.22 2656.22 0 0 1-46.209 46.523c-3.721 3.654-2.538 10.057 2.169 12.183C146.57 275.03 98.636 318.13 52.192 356.148c-12.174 10.041-27.053 20.676-37.206 32.8-8.193 9.334-9.27 24.119-3.012 41.686 12.812 38.628 62.953 82.85 100.789 82.257 7.24.001 17.52-1.838 21.822-8.547l29.763-36.258c31.861-38.22 65.312-75.694 99.844-111.887v112.806c0 7.564 10.78 10.492 14.261 3.247l28.747-59.855 17.418 11.47c4.898 3.227 11.625-.4 11.625-6.264V298.622a2607.344 2607.344 0 0 1 18.415-17.686 7.5 7.5 0 0 0 1.917-7.904 166.708 166.708 0 0 0-2.262-6.065 2251.805 2251.805 0 0 1 140.412-120.872c7.399-5.846 10.221-17.056 10.221-25.952-.001-19.722-12.084-44.217-31.702-64.554zM59.337 369.831c48.381-39.61 100.803-86.837 151.029-136.144 13.801 5.889 26.712 13.779 37.07 22.928L114.981 387.873c-15.565-11.403-36.311-18.739-55.644-18.042zm-4.536 98.337c-28.105-27.852-37.581-58.646-28.659-69.183 14.216-13.684 34.259-16.91 53.036-11.752l-25.646 25.646c-3.603 3.6-5.33 8.589-5.152 13.633.442 12.51 11.801 28.263 34.727 48.159 2.895 2.513 7.417 2.312 10.09-.236l18.998-18.109c11.915 18.978 10.757 33.335 9.191 39.818-9.441 5.117-39.32-.958-66.585-27.976zm9.337-44.683c9.961-9.961 33.071 13.727 39.051 20.703l-15.342 14.624c-2.981-2.723-31.437-27.589-23.709-35.327zm257.105-19.8-12.963-8.536c-3.74-2.463-8.947-1.02-10.885 3.017l-18.202 37.9v-95.438a2237.477 2237.477 0 0 1 16.217-16.506c1.938 4.936 8.558 6.277 12.269 2.573a2730.6 2730.6 0 0 1 13.563-13.435v90.425zm-16.058-95.66a167.117 167.117 0 0 0-7.582-15.29c-4.593-8.186-17.883-1.215-13.08 7.342a152.392 152.392 0 0 1 4.676 9.034c-47.515 47.571-93.381 97.799-136.408 149.415l-16.207 19.743c-4.337-27.916-29.17-62.006-57.192-70.037l15.119-15.119c5.716 2.793 11.766 6.398 18.149 10.991 2.91 2.094 7.165 1.713 9.66-.76L259.705 267.2c7.267 7.338 19.313-1.676 11.82-9.394-16.858-17.363-37.354-30.97-59.819-39.794a2692.454 2692.454 0 0 0 34.661-34.994c43.301 14.7 78.099 48.048 94.392 90.439-5.761 5.493-29.518 28.573-35.574 34.568zm179.87-173.406a2267.345 2267.345 0 0 0-137.237 117.886 168.738 168.738 0 0 0-30.566-42.333L462.587 66.149c18.025 18.594 36.534 51.633 22.468 68.47z" fill="#000000" opacity="1" data-original="#000000"></path></g></svg>