<svg xmlns="http://www.w3.org/2000/svg" version="1.1" xmlns:xlink="http://www.w3.org/1999/xlink" width="512" height="512" x="0" y="0" viewBox="0 0 64 64" style="enable-background:new 0 0 512 512" xml:space="preserve" class=""><g><path fill="#504035" d="M14.46 26.625C16.116 33.084 17.828 40 19.574 46.54c.313 1.172.926 2.442 1.888 2.908 3.06 1.483 8.075 2.205 13.74 1.34 9.285-1.418 15.447-5.862 18.544-8.862 1.272-1.232 1.183-2.526.57-4.82L48.574 15.61 14.46 26.625z" opacity="1" data-original="#504035" class=""></path><path fill="#7e6e66" d="m48.57 15.612 5.742 21.493c.614 2.299.71 3.59-.563 4.828a29.955 29.955 0 0 1-3.457 2.853c2.676-3.064 2.217-4.85 2.114-5.167-1.527-5.358-3.557-13.886-6.471-23.15.876-.292 1.758-.566 2.635-.857z" opacity="1" data-original="#7e6e66"></path><path fill="#231f20" d="m54.808 36.324-5.155-20.977a1.096 1.096 0 0 0-1.427-.785C36.632 18.326 25.02 22.25 13.568 26.14c1.873 7.295 3.621 14.448 5.726 21.637.339.874.927 1.926 1.998 2.408 11.255 4.352 24.776.089 33.213-8.116 1.498-1.606.767-3.942.303-5.744zm-1.302 4.905c-6.243 6.1-15.304 9.33-23.991 9.169-2.605-.09-5.227-.482-7.599-1.552-.607-.214-1.052-.839-1.41-1.588L15.353 27.12c10.916-3.353 21.69-6.671 32.482-10.114l5.654 19.675c.482 1.712 1.053 3.478.018 4.548z" opacity="1" data-original="#231f20" class=""></path><path fill="#504035" d="M1.843 27.157c9.445-9.155 16.922-15.696 23.333-20.791.904-.72 2.553-1.871 5.864-1.62 4.87.371 15.41 2.581 29.475 5.975 3.43.828 3.392 3.286 1.57 5.213-7.383 7.808-15.56 16.097-21.706 21.926-2.42 2.294-4.132 2.217-6.038 1.928-8.79-1.332-20.041-3.536-30.834-7.619-2.969-1.123-3.263-3.462-1.664-5.012z" opacity="1" data-original="#504035" class=""></path><path fill="#7e6e66" d="M62.08 15.939a655.3 655.3 0 0 1-13.043 13.428 75.266 75.266 0 0 1 5.77-8.418c1.52-1.89 4.033-4.846 3.118-7.128-.3-.762-.877-1.21-1.32-1.512-3.49-2.415-12.465-3.987-19.519-6.734 5.656 1.015 13.693 2.797 23.43 5.148 3.428.828 3.396 3.283 1.564 5.216z" opacity="1" data-original="#7e6e66"></path><path fill="#231f20" d="M1.23 26.524c6.922-6.406 14.033-12.59 21.115-18.82l1.8-1.526c1.758-1.79 4.664-2.59 7.086-2.263 9.154 1.13 18.764 3.776 27.72 5.846l2.33.589c3.455.97 3.41 4.47 1.034 6.6-5.4 5.37-16.238 16.576-21.539 21.804-1.886 2.026-4.733 2.242-7.257 1.61-6.222-.927-12.411-2.134-18.522-3.702-3.815-.99-7.608-2.12-11.314-3.481-3.018-.787-5.138-4.066-2.454-6.657zm1.227 1.266C0 30.493 4.6 31.608 6.495 32.318a126.09 126.09 0 0 0 8.913 2.803c6.013 1.665 12.151 2.878 18.324 3.87 3.255.842 5.216-.843 7.441-3.263 4.226-4.236 15.51-15.602 19.867-19.986 3.153-2.839 1.059-4.36-2.354-4.874l-9.17-2.066c-6.11-1.293-12.298-2.628-18.42-3.2-1.469-.11-2.92.01-4.156.615-8.944 6.048-16.854 13.914-24.483 21.573z" opacity="1" data-original="#231f20" class=""></path><path fill="#fce68b" d="M32.345 18.17c-.8-1.008-2.328-.191-4.014.973C21.804 23.647 9.42 33.205 8.86 33.76c-.387.384-.496.714-.518 1.123-.053.962.648 14.104.873 17.278 1.324-.04 2.166.043 3.49.004-.162-2.005-1.312-13.765-1.395-16.168-.012-.368.452-.666.58-.773 7.455-5.543 13.607-9.858 19.429-13.873.973-.677 1.842-2.155 1.025-3.18z" opacity="1" data-original="#fce68b"></path><path fill="#231f20" d="M32.743 17.845c-1.855-1.998-4.334.535-5.957 1.57a598.42 598.42 0 0 0-9.526 7.098c-1.551 1.16-5.654 4.139-7.134 5.298-.839.75-1.873 1.106-2.426 2.319-.25.82-.072 1.16-.09 1.695.321 5.422.571 10.952.981 16.374a.617.617 0 0 0 .643.589l3.478-.09c.303-.017.553-.267.517-.57-.32-4.62-.678-9.329-1.07-13.949-.018-.464-.143-1.641-.16-2.087 0-.018 0-.035-.018-.053 1.355-1.106 3.05-2.159 4.548-3.265 4.424-3.103 9.186-6.67 13.592-9.864 1.588-1.052 4.138-2.89 2.622-5.065zm-3.282 4.12c-4.46 3.14-9.4 6.51-13.77 9.686-1.588 1.32-3.55 2.194-4.941 3.835-.232.5-.036.91-.036 1.355.446 4.888.892 9.882 1.41 14.787l-2.302-.089c-.089-3.746-.267-7.491-.446-11.22-.035-1.48-.285-4.28-.214-5.672.107-.41 1.48-1.32 1.855-1.694l2.301-1.837c2.301-1.873 7.028-5.459 9.418-7.189l4.817-3.425c.82-.553 1.623-1.141 2.425-1.587.821-.375 1.588-.874 1.963-.428.838 1.516-1.32 2.64-2.48 3.478z" opacity="1" data-original="#231f20" class=""></path><path fill="#fce68b" d="M10.08 49.909c-.783.773-1.203 1.483-1.439 1.975-.84 1.753-.704 2.659-.449 5.762.03.367.084.657.28.962.67 1.043 3.04.794 4.327.664 1.834-.184 2.067-.69 2.171-.825.264-.345.233-.89.204-1.303-.186-2.709-.07-3.548-1.146-5.175-.372-.562-1.224-1.53-3.312-2.206l-.636.146z" opacity="1" data-original="#fce68b"></path><path fill="#231f20" d="M15.94 56.141c-.089-1.177-.124-2.461-.695-3.585-1.017-2.301-3.46-3.175-5.69-3.603-1.017.91-1.677 2.23-2.07 3.514-.499 1.89-.053 3.585.054 5.369.125 2.461 3.354 2.408 4.959 2.265.98-.089 2.069-.089 2.925-.874.874-.785.589-2.23.517-3.086zm-2.104 2.087c-1.267.34-3.336.625-4.46.232-.802-.32-.464-1.677-.624-2.426-.125-1.694.107-3.05 1.07-4.316.214-.321.553-.625.839-.874-.018.017-.036.017-.054.017.036-.267.143-.41.179-.499 1.409.589 2.515 1.427 3.067 2.836.518 1.32.429 3.229.464 4.567-.035.25-.035.285-.481.463z" opacity="1" data-original="#231f20" class=""></path><path fill="#fff8c7" d="M10.53 47.526c-1.22.196-2.053 1.312-1.966 2.447.102 1.35 1.469 2.223 2.651 2.05 1.327-.194 2.375-1.697 1.953-3.005-.32-.997-1.432-1.687-2.639-1.492z" opacity="1" data-original="#fff8c7"></path><path fill="#231f20" d="M10.664 48.363c-2.224.262-1.712 3.357.512 3.03 1.998-.538 1.707-3.395-.512-3.03zm-.27-1.673c4.079-.485 4.961 5.02 1.007 5.932-3.9.487-4.872-5.005-1.007-5.932z" opacity="1" data-original="#231f20" class=""></path></g></svg>