<svg xmlns="http://www.w3.org/2000/svg" version="1.1" xmlns:xlink="http://www.w3.org/1999/xlink" width="512" height="512" x="0" y="0" viewBox="0 0 512 512" style="enable-background:new 0 0 512 512" xml:space="preserve" class=""><g><g fill-rule="evenodd"><path fill="#5d689e" d="M188.088 156.073H422.57v90.95c-33.012 19.815-73.493 31.49-117.241 31.49s-84.229-11.674-117.241-31.49z" opacity="1" data-original="#5d689e" class=""></path><path fill="#495586" d="M382.058 156.073h40.512v90.95c-12.508 7.508-26.088 13.845-40.512 18.824z" opacity="1" data-original="#495586"></path><path fill="#004cbd" d="m120.166 128.413 175.406-47c6.686-1.791 12.829-1.791 19.515 0l175.406 47c3.519.943 5.883 4.024 5.883 7.666s-2.364 6.723-5.883 7.666l-175.406 47c-6.685 1.792-12.829 1.792-19.515 0l-175.406-47c-3.519-.943-5.882-4.024-5.882-7.666s2.363-6.724 5.882-7.666z" opacity="1" data-original="#004cbd" class=""></path><path fill="#0062d9" d="m120.507 128.322 175.065-46.909c6.686-1.791 12.829-1.791 19.515 0l175.065 46.909-175.065 46.908c-6.685 1.792-12.829 1.792-19.515 0z" opacity="1" data-original="#0062d9" class=""></path><path fill="#f2671f" d="M481.717 227.024h2.978l12.479 26.815c2.685 5.769 3.89 11.216 3.89 17.58v31.456c0 6.002-4.911 10.913-10.913 10.913h-16.868c-6.002 0-10.912-4.91-10.912-10.913v-31.456c0-6.363 1.205-11.811 3.89-17.58l12.479-26.815h2.978z" opacity="1" data-original="#f2671f"></path><path fill="#ff8748" d="M477.87 313.789h-4.587c-6.002 0-10.912-4.91-10.912-10.913V271.42c0-6.363 1.205-11.811 3.89-17.58l9.316-20.018 9.316 20.018c2.685 5.769 3.89 11.216 3.89 17.58v31.456c0 6.002-4.91 10.913-10.912 10.913z" opacity="1" data-original="#ff8748"></path><path fill="#f19a00" d="M481.013 245.457c11.044 0 20.051-9.007 20.051-20.051s-9.007-20.051-20.051-20.051-20.052 9.007-20.052 20.051 9.008 20.051 20.052 20.051z" opacity="1" data-original="#f19a00"></path><path fill="#f9ac00" d="M474.872 244.498c-8.07-2.594-13.911-10.16-13.911-19.092s5.84-16.498 13.911-19.092c8.07 2.594 13.911 10.16 13.911 19.092s-5.841 16.498-13.911 19.092z" opacity="1" data-original="#f9ac00"></path><path fill="#2a92fa" d="m20.191 258.235 158.035 68.3 138.167 102.712c16.485 9.505 44.05-7.387 61.573-37.739s18.37-62.67 1.891-72.184l-158.04-68.291L83.656 148.312 20.192 258.235z" opacity="1" data-original="#2a92fa"></path><path fill="#4eb1fc" d="M352.259 421.576c9.295-7.039 18.379-17.375 25.707-30.068 17.523-30.352 18.37-62.67 1.891-72.184l-158.04-68.291L83.656 148.312l-53.525 92.707 154.732 66.873L334.81 419.361c5.034 2.903 11.021 3.537 17.449 2.215z" opacity="1" data-original="#4eb1fc"></path><path fill="#2a92fa" d="M83.656 148.312c14.219 8.209 11.541 39.47-5.983 69.822s-43.257 48.302-57.476 40.093c-14.219-8.21-11.541-39.47 5.983-69.822 17.523-30.352 43.256-48.302 57.476-40.092z" opacity="1" data-original="#2a92fa"></path><path fill="#f3f3ff" d="M18.547 257.107c-12.324-9.638-9.178-39.586 7.632-68.702 15.327-26.548 36.935-43.607 51.625-41.973 12.325 9.637 9.178 39.586-7.632 68.703-15.327 26.548-36.935 43.607-51.625 41.973z" opacity="1" data-original="#f3f3ff"></path><path fill="#2a92fa" d="M67.262 156.729c9.441 5.451 6.356 28.471-6.891 51.416s-31.64 37.127-41.082 31.675c-9.442-5.451-6.356-28.471 6.891-51.416s31.64-37.127 41.082-31.676z" opacity="1" data-original="#2a92fa"></path><path fill="#4eb1fc" d="M69.49 158.598c6.58 7.692 2.946 28.65-9.119 49.547-11.654 20.185-27.289 33.586-37.31 32.806-6.58-7.692-2.946-28.649 9.119-49.547 11.654-20.185 27.289-33.586 37.31-32.807z" opacity="1" data-original="#4eb1fc"></path><path fill="#ff3c98" d="m152.145 303.602-63.658 44.006 26.401 5.958-1.114 27.041 59.049-50.02z" opacity="1" data-original="#ff3c98"></path><path fill="#fd5ba6" d="M152.145 303.602 96 342.415l19.169 4.326-.997 24.206 54.319-46.013z" opacity="1" data-original="#fd5ba6"></path><path fill="#ff3c98" d="m177.462 333.31-13.896 76.129 22.881-14.455 18.334 19.909 6.384-77.123z" opacity="1" data-original="#ff3c98"></path><path fill="#fd5ba6" d="m177.462 333.31-12.115 66.375 16.076-10.156 16.741 18.178 5.867-70.881z" opacity="1" data-original="#fd5ba6"></path><path fill="#f9ac00" d="M219.889 221.677c-6.923 3.172-14.555 2.167-20.421-2.688-5.453-4.515-11.145-6.328-18.161-4.448-7.019 1.88-11.038 6.296-13.505 12.933-2.652 7.138-8.759 11.824-16.341 12.539-7.049.664-12.355 3.406-15.988 9.697-3.633 6.292-3.353 12.258-.404 18.694 3.172 6.923 2.167 14.555-2.688 20.421-4.515 5.452-6.328 11.145-4.448 18.161 1.88 7.019 6.296 11.037 12.933 13.505 7.138 2.652 11.824 8.76 12.539 16.341.664 7.049 3.406 12.355 9.697 15.988 6.292 3.633 12.258 3.353 18.694.404 6.923-3.172 14.555-2.167 20.421 2.688 5.453 4.515 11.145 6.328 18.161 4.448 7.019-1.88 11.038-6.296 13.505-12.933 2.652-7.138 8.759-11.824 16.341-12.539 7.049-.665 12.355-3.405 15.988-9.697s3.353-12.258.404-18.694c-3.172-6.923-2.167-14.555 2.688-20.421 4.514-5.452 6.328-11.145 4.448-18.161-1.88-7.019-6.296-11.038-12.933-13.505-7.138-2.652-11.824-8.76-12.539-16.341-.664-7.049-3.406-12.355-9.697-15.988-6.292-3.633-12.258-3.353-18.694-.404z" opacity="1" data-original="#f9ac00"></path><path fill="#fcdb35" d="M219.889 221.677c-6.923 3.172-14.555 2.167-20.421-2.688-5.452-4.515-11.145-6.328-18.161-4.448-7.018 1.88-11.037 6.296-13.504 12.933-2.652 7.138-8.76 11.824-16.341 12.539-7.049.664-12.355 3.405-15.988 9.697s-3.353 12.258-.404 18.694c3.172 6.923 2.167 14.555-2.688 20.421-4.515 5.452-6.328 11.145-4.448 18.161 1.88 7.019 6.296 11.037 12.933 13.505 7.138 2.652 11.824 8.76 12.539 16.341.527 5.588 2.359 10.081 6.23 13.512 4.908 1.636 9.715.977 14.818-1.361 6.922-3.172 14.555-2.167 20.421 2.688.252.208.504.411.757.608 2.338.745 4.568 1.961 6.588 3.633l.077.063c3.292 1.092 6.808 1.199 10.74.145 7.019-1.88 11.038-6.296 13.505-12.933 2.652-7.138 8.76-11.825 16.341-12.539 7.049-.664 12.355-3.405 15.988-9.697 3.632-6.292 3.353-12.258.404-18.694-3.172-6.923-2.167-14.555 2.688-20.421 4.515-5.453 6.328-11.145 4.448-18.161-1.054-3.934-2.905-6.926-5.497-9.23l-.092-.035c-2.458-.913-4.625-2.236-6.44-3.888a30.971 30.971 0 0 0-.905-.352c-7.138-2.652-11.824-8.76-12.539-16.341-.527-5.588-2.359-10.081-6.23-13.513-4.908-1.636-9.715-.976-14.817 1.361z" opacity="1" data-original="#fcdb35" class=""></path><path fill="#f9ac00" d="M177.141 315.942c17.437 10.067 39.734 4.093 49.802-13.344s4.093-39.734-13.344-49.802c-17.437-10.067-39.734-4.093-49.802 13.344-10.067 17.437-4.093 39.734 13.344 49.802z" opacity="1" data-original="#f9ac00"></path><path fill="#f3f3ff" d="M182.614 319.023c17.437 10.068 39.734 4.093 49.802-13.344s4.093-39.734-13.344-49.802c-17.437-10.067-39.734-4.093-49.802 13.344-10.067 17.437-4.093 39.734 13.344 49.802z" opacity="1" data-original="#f3f3ff"></path><path fill="#021047" d="M226.873 302.94c-4.048 7.026-10.601 12.056-18.407 14.157-7.854 2.101-16.046 1.022-23.081-3.041-7.035-4.057-12.047-10.611-14.167-18.451-2.072-7.83-1.012-16.017 3.036-23.048 4.096-7.031 10.601-12.061 18.456-14.162a30.956 30.956 0 0 1 7.903-1.036c5.301 0 10.457 1.378 15.179 4.077 14.504 8.38 19.467 26.989 11.083 41.503zm10.408 5.999c11.661-20.243 4.722-46.211-15.516-57.892-9.782-5.657-21.202-7.17-32.141-4.24-10.938 2.93-20.094 9.95-25.732 19.752-11.709 20.238-4.722 46.206 15.516 57.892 6.505 3.768 13.733 5.695 21.106 5.695a42.56 42.56 0 0 0 11.035-1.46c10.938-2.93 20.046-9.951 25.732-19.747zm257.703-6.043c0 2.713-2.168 4.92-4.867 4.92h-16.914c-2.699 0-4.867-2.207-4.867-4.92v-31.447c0-5.459 1.012-10.1 3.325-15.054l2.65-5.768a25.98 25.98 0 0 0 6.65.848c2.747 0 5.397-.419 7.854-1.21l2.843 6.129c2.313 4.954 3.325 9.594 3.325 15.054v31.447zm-14.022-91.521c7.758 0 14.022 6.312 14.022 14.051s-6.264 14.051-14.022 14.051-14.071-6.298-14.071-14.051 6.312-14.051 14.071-14.051zm-64.426 32.242v-73.832l-99.939 26.782c-3.855 1.031-7.614 1.552-11.324 1.552s-7.469-.521-11.324-1.552l-99.891-26.782v39.561c3.036 1.079 6.023 2.819 8.963 5.243 4.144 3.407 9.252 4.091 14.119 1.86 8.673-3.961 16.576-3.739 24.238.67 7.614 4.409 11.758 11.16 12.673 20.629.482 5.32 3.662 9.44 8.673 11.3 8.915 3.31 14.36 9.069 16.625 17.588.289 1.031.482 2.052.675 3.05l4.433 1.932c6.891.607 13.878.92 20.817.92 40.091 0 78.496-9.994 111.263-28.922zM385.6 347.469c.289-10.991-2.795-19.26-8.529-22.763l-98.446-42.539c-1.108 2.732-2.699 5.411-4.867 8.033-3.421 4.12-4.096 9.257-1.879 14.119 3.951 8.649 3.758 16.571-.675 24.209-4.433 7.642-11.179 11.791-20.624 12.682-5.349.496-9.444 3.657-11.324 8.669-1.494 4.077-3.517 7.43-6.12 10.081l86.447 64.267c11.998 6.51 36.092-6.158 53.15-35.687 7.951-13.829 12.529-28.411 12.866-41.07zm-179.833 4.187c4.337 3.6 8.047 4.554 12.817 3.282 4.722-1.272 7.469-3.952 9.445-9.242 3.469-9.348 11.468-15.497 21.395-16.436 5.638-.52 8.963-2.482 11.372-6.732 2.457-4.25 2.505-8.081.193-13.208-4.192-9.083-2.843-19.082 3.518-26.773 3.566-4.346 4.529-8.057 3.277-12.798-1.301-4.751-3.951-7.484-9.252-9.449-9.348-3.484-15.516-11.483-16.432-21.424-.53-5.619-2.506-8.919-6.746-11.367-4.241-2.462-8.095-2.501-13.203-.149-9.107 4.158-19.082 2.838-26.792-3.522-4.337-3.6-8.047-4.549-12.77-3.282-4.77 1.272-7.517 3.952-9.444 9.242-3.518 9.362-11.517 15.501-21.443 16.441-5.638.53-8.914 2.482-11.372 6.732s-2.506 8.076-.145 13.208c4.144 9.078 2.843 19.077-3.517 26.768-3.614 4.351-4.53 8.061-3.277 12.803 1.253 4.746 3.951 7.488 9.252 9.449 9.348 3.479 15.468 11.478 16.432 21.419.53 5.619 2.458 8.919 6.698 11.372 4.289 2.457 8.095 2.496 13.251.149 3.469-1.6 7.132-2.39 10.697-2.39 5.734 0 11.324 2 16.046 5.908zm-5.686 48.953-9.059-9.835c-1.976-2.125-5.204-2.544-7.613-.997l-11.324 7.161 6.505-35.942a33.027 33.027 0 0 0 5.397-1.947c4.867-2.231 10.023-1.552 14.119 1.86a35.896 35.896 0 0 0 4.915 3.368l-2.94 36.333zm-79.653-33.412.53-13.372c.096-2.887-1.831-5.455-4.674-6.086l-13.059-2.93 30.02-20.811c1.59.92 3.325 1.749 5.204 2.448 5.011 1.86 8.144 5.98 8.674 11.299.193 2.091.53 4.043 1.06 5.874l-27.756 23.578zM55.377 205.309c-6.023 10.437-13.299 19.222-20.431 24.739-6.12 4.708-10.698 5.782-12.48 4.742-1.783-1.031-3.132-5.503-2.12-13.15 1.205-8.963 5.204-19.631 11.228-30.073 12.095-21 25.587-29.856 31.225-29.856.627 0 1.205.125 1.639.376 4.048 2.332 4.481 19.704-9.059 43.224zm20.335-52.972c-1.157 0-2.361.159-3.662.448 12.529 9.55 6.602 36.203-6.312 58.523-6.794 11.762-15.131 21.79-23.467 28.237-6.554 5.031-12.77 7.604-18.215 7.604-2.072 0-4.048-.371-5.879-1.123 1.06 3.243 2.65 5.619 4.819 6.944l2.12.906c10.553 2.939 31.418-11.237 47.319-38.718 8.047-13.931 13.059-28.401 14.119-40.723.771-9.189-.771-16.138-4.241-19.578l-1.927-1.417c-1.301-.732-2.891-1.103-4.674-1.103zm53.584 118.838c2.216 4.862 1.542 10.003-1.879 14.124-2.747 3.359-4.626 6.79-5.686 10.341l-77.918-33.682a61.815 61.815 0 0 0 7.276-4.371c11.565-8.066 22.841-21 31.707-36.429 8.915-15.42 14.504-31.649 15.709-45.7.241-2.968.289-5.792.145-8.447l67.751 50.36c-1.831 2.318-3.325 5.06-4.53 8.249-1.831 5.007-5.975 8.168-11.276 8.669-9.493.887-16.239 5.04-20.624 12.678-4.433 7.642-4.674 15.564-.675 24.209zm-9.059-135.067c0-.93.53-1.629 1.446-1.87l175.4-47.002c2.843-.761 5.493-1.137 8.192-1.137s5.349.376 8.192 1.137l175.4 47.002c.916.241 1.446.94 1.446 1.87s-.53 1.628-1.446 1.869l-8.432 2.26-169.039-15.28c-3.325-.299-6.216 2.14-6.505 5.441s2.12 6.211 5.445 6.51l136.465 12.341-133.333 35.73c-5.638 1.518-10.697 1.518-16.383 0l-175.4-47.002c-.916-.241-1.446-.94-1.446-1.869zm378.941 107.929a25.986 25.986 0 0 0 7.806-18.61c0-12.297-8.529-22.619-20.046-25.341v-49.17l5.06-1.349c6.168-1.657 10.312-7.069 10.312-13.458s-4.144-11.811-10.312-13.459l-175.4-47.002c-7.71-2.072-14.938-2.072-22.648 0l-175.401 47.001c-6.168 1.648-10.312 7.059-10.312 13.459s4.144 11.801 10.312 13.458l63.51 17.01v41.831c-.867.149-1.735.333-2.602.559-1.012.27-2.024.602-2.94.974l-86.495-64.31a21.715 21.715 0 0 0-3.421-2.491c-9.011-5.199-21.057-3.122-33.923 5.86-11.565 8.071-22.84 21.009-31.755 36.429-8.915 15.429-14.456 31.659-15.661 45.7-1.349 15.642 2.891 27.12 11.854 32.319a21.047 21.047 0 0 0 3.903 1.73l100.759 43.542v.14c.675 2.419 1.59 4.602 2.747 6.582l-39.368 27.298a5.913 5.913 0 0 0-2.458 6.081 5.94 5.94 0 0 0 4.53 4.708l21.54 4.823-.867 22.041a5.954 5.954 0 0 0 3.373 5.628c.819.41 1.734.607 2.602.607a6.05 6.05 0 0 0 3.903-1.426l36.525-31.013c1.542 1.581 3.373 2.983 5.493 4.192 2.168 1.258 4.337 2.159 6.602 2.728l-8.577 47.151c-.386 2.342.578 4.722 2.554 6.052 1.975 1.33 4.578 1.359 6.602.087l18.6-11.806 14.986 16.21a5.974 5.974 0 0 0 4.385 1.927c.675 0 1.301-.111 1.975-.328 2.265-.781 3.807-2.814 4-5.195l3.903-47.729c2.217 0 4.529-.318 6.842-.949.048-.01.096-.029.145-.039l90.928 67.601c.193.14.386.27.578.381 4.048 2.327 8.577 3.436 13.348 3.436 18.456 0 40.959-16.576 56.427-43.368 8.963-15.53 14.119-32.14 14.504-46.751.434-15.94-4.819-27.881-14.793-33.629a3.854 3.854 0 0 0-.626-.318l-68.184-29.452c40.284-1.402 78.737-12.461 111.601-32.189a5.985 5.985 0 0 0 2.94-5.151v-80.472l46.404-12.451v45.96c-11.469 2.723-20.046 13.044-20.046 25.341 0 7.773 3.421 14.75 8.866 19.53l-2.987 6.38c-3.036 6.52-4.433 12.909-4.433 20.113v31.447c0 9.334 7.565 16.923 16.865 16.923h16.914c9.3 0 16.866-7.589 16.866-16.923V271.45c0-7.204-1.397-13.593-4.433-20.113l-3.373-7.3z" opacity="1" data-original="#021047" class=""></path></g></g></svg>